<svg xmlns="http://www.w3.org/2000/svg" width="36" height="37" viewBox="0 0 36 37" fill="none">
  <path d="M14.9428 12.5335C14.9428 14.259 13.5452 15.6512 11.825 15.6512C10.1049 15.6512 8.70734 14.2536 8.70734 12.5335C8.70734 10.8134 10.1049 9.41577 11.825 9.41577C13.5452 9.41577 14.9428 10.808 14.9428 12.5335Z" fill="#76BC21"/>
  <path d="M27.4572 12.3714C27.4572 14.0935 26.0591 15.4915 24.3419 15.4915C22.6198 15.4915 21.2217 14.0984 21.2217 12.3714C21.2217 10.6493 22.6198 9.25612 24.3419 9.25612C26.0591 9.25128 27.4572 10.6493 27.4572 12.3714Z" fill="#98989A"/>
  <path d="M14.7783 25.0357C14.7783 26.7578 13.3803 28.1558 11.6582 28.1558C9.93604 28.1558 8.53802 26.7578 8.53802 25.0357C8.53802 23.3135 9.93604 21.9155 11.6582 21.9155C13.3803 21.9155 14.7783 23.3135 14.7783 25.0357Z" fill="#98989A"/>
  <path d="M27.4572 25.0357C27.4572 26.7578 26.0591 28.1558 24.3419 28.1558C22.6198 28.1558 21.2217 26.7578 21.2217 25.0357C21.2217 23.3135 22.6198 21.9155 24.3419 21.9155C26.0591 21.9155 27.4572 23.3135 27.4572 25.0357Z" fill="#76BC21"/>
  <path d="M31.3513 14.05C29.4985 14.05 27.9022 15.1384 27.1572 16.7057C26.9347 17.083 26.4848 17.6683 25.8221 17.6683V17.6732H23.5437V17.6683C22.5907 17.6683 22.0828 16.4638 22.0489 16.4058V16.4348C21.9522 16.2655 21.8457 16.101 21.7296 15.9462C21.72 15.9365 21.7151 15.922 21.7055 15.9124C21.6571 15.8495 21.6087 15.7866 21.5603 15.7285C21.541 15.7043 21.5216 15.6802 21.5023 15.6608C21.4636 15.6173 21.4201 15.5689 21.3765 15.5254C21.3427 15.4915 21.3088 15.4576 21.2749 15.4238C21.2459 15.3948 21.212 15.3657 21.183 15.3319C21.1346 15.2883 21.0863 15.2448 21.0379 15.2013C21.0185 15.1867 20.9992 15.1674 20.9798 15.1529C20.917 15.0997 20.8541 15.0465 20.7864 14.9981C20.7815 14.9932 20.7718 14.9884 20.767 14.9836C20.6122 14.8675 20.4477 14.7562 20.2736 14.6595H20.2881C20.2784 14.6546 20.2349 14.6353 20.1768 14.6063C20.1768 14.6063 20.172 14.6063 20.172 14.6014C20.143 14.5869 20.114 14.5724 20.0849 14.5579C19.727 14.3595 19.0255 13.8952 19.0255 13.1647H19.0207V10.8863H19.0255C19.0255 10.18 19.6931 9.71563 20.0607 9.50762C20.1139 9.48343 20.1672 9.45441 20.2155 9.42539C20.2542 9.40604 20.2833 9.39636 20.2881 9.39152H20.2784C21.6909 8.59335 22.6439 7.08408 22.6439 5.35229C22.6439 2.78846 20.5638 0.708374 18 0.708374C15.4362 0.708374 13.3561 2.78846 13.3561 5.35229C13.3561 7.08892 14.3091 8.59819 15.7216 9.39152H15.7119C15.7167 9.39636 15.7361 9.40604 15.7603 9.41571C15.8232 9.44957 15.8909 9.48343 15.9538 9.5173C16.3214 9.7253 16.9745 10.1849 16.9745 10.8863V13.1647C16.9745 13.8758 16.3069 14.3402 15.9393 14.5434C15.8909 14.5676 15.8377 14.5966 15.7893 14.6208C15.7458 14.6401 15.7167 14.6546 15.7071 14.6595H15.7167C15.5474 14.7562 15.383 14.8626 15.2233 14.9787C15.2137 14.9836 15.2088 14.9884 15.1991 14.9981C15.1363 15.0465 15.0734 15.0997 15.0105 15.1529C14.9911 15.1674 14.9718 15.1867 14.9476 15.2061C14.8992 15.2496 14.8508 15.2932 14.8073 15.3367C14.7734 15.3657 14.7444 15.3996 14.7106 15.4286C14.6767 15.4625 14.6477 15.4915 14.6138 15.5254C14.5703 15.5689 14.5267 15.6173 14.488 15.6656C14.4687 15.685 14.4542 15.7092 14.4348 15.7285C14.3816 15.7914 14.3332 15.8543 14.2849 15.9172C14.28 15.9269 14.2704 15.9365 14.2655 15.9462C14.1494 16.101 14.043 16.2655 13.9463 16.4348V16.4203C13.9414 16.43 13.9221 16.4735 13.893 16.5315C13.8882 16.5364 13.8882 16.5412 13.8834 16.5461C13.8689 16.5702 13.8543 16.5993 13.8447 16.6235C13.6463 16.9814 13.1819 17.6828 12.4563 17.6828V17.6877H10.1779V17.6828C9.46681 17.6828 9.00726 17.0153 8.79925 16.6476C8.77506 16.5944 8.74604 16.5412 8.71701 16.4928C8.69766 16.4541 8.68799 16.4251 8.68315 16.4203V16.43C7.88498 15.0174 6.37571 14.0645 4.64391 14.0645C2.08009 14.0645 0 16.1445 0 18.7084C0 21.2722 2.08009 23.3523 4.64391 23.3523C6.38054 23.3523 7.88981 22.3993 8.68315 20.9868V20.9965C8.68799 20.9916 8.69766 20.9723 8.70734 20.9481C8.7412 20.8852 8.77506 20.8175 8.80892 20.7546C9.01693 20.387 9.47649 19.7339 10.1779 19.7339H12.4563C13.1674 19.7339 13.6318 20.4063 13.835 20.7691C13.8592 20.8175 13.8882 20.8659 13.9124 20.9142C13.9317 20.9578 13.9463 20.9868 13.9511 20.9965V20.9868C14.0478 21.1609 14.1543 21.3254 14.2752 21.4802C14.28 21.4899 14.2849 21.4947 14.2897 21.4996C14.3381 21.5673 14.3913 21.6302 14.4445 21.6931C14.459 21.7124 14.4784 21.7318 14.4929 21.7511C14.5364 21.7995 14.58 21.8527 14.6283 21.8962C14.6574 21.9253 14.6864 21.9591 14.7154 21.9881C14.7493 22.022 14.788 22.0559 14.8218 22.0897C14.8654 22.1284 14.9089 22.172 14.9524 22.2107C14.9766 22.23 15.0008 22.2542 15.025 22.2735C15.083 22.3219 15.1411 22.3703 15.204 22.4187C15.2185 22.4283 15.2282 22.438 15.2427 22.4477C15.3152 22.5009 15.3926 22.5541 15.47 22.6073C15.47 22.6073 15.4749 22.6073 15.4749 22.6122C15.5571 22.6654 15.6442 22.7186 15.7313 22.767H15.7071C15.7651 22.8008 16.9745 23.3088 16.9745 24.2617V26.5401C16.9745 27.198 16.3988 27.6431 16.0263 27.8656C14.4493 28.6057 13.3513 30.2069 13.3513 32.0645C13.3513 34.6283 15.4313 36.7084 17.9952 36.7084C20.559 36.7084 22.6391 34.6283 22.6391 32.0645C22.6391 30.2117 21.5507 28.6154 19.9833 27.8704C19.6109 27.6479 19.0207 27.198 19.0207 26.5353H19.0159V24.2569H19.0207C19.0207 23.3039 20.2252 22.796 20.2833 22.7621H20.2542C20.4235 22.6654 20.588 22.559 20.7477 22.4429C20.7573 22.4332 20.7718 22.4283 20.7815 22.4187C20.8444 22.3703 20.9073 22.3219 20.9653 22.2687C20.9895 22.2494 21.0089 22.23 21.0331 22.2107C21.0814 22.1671 21.125 22.1284 21.1733 22.0849C21.2072 22.051 21.2411 22.022 21.2749 21.9881C21.3088 21.9543 21.3378 21.9253 21.3668 21.8914C21.4104 21.843 21.4539 21.7946 21.4974 21.7463C21.5168 21.7269 21.5361 21.7027 21.5507 21.6834C21.6039 21.6205 21.6522 21.5576 21.7006 21.4947C21.7103 21.485 21.7151 21.4754 21.7248 21.4657C21.8409 21.3061 21.9473 21.1416 22.0441 20.9723V20.9965C22.0779 20.9384 22.5859 19.7339 23.5388 19.7339H25.8173C26.4751 19.7339 26.9202 20.3047 27.1427 20.682C27.8828 22.259 29.484 23.3571 31.3416 23.3571C33.9054 23.3571 35.9855 21.277 35.9855 18.7132C35.9952 16.13 33.9151 14.05 31.3513 14.05ZM4.64391 21.248C3.23139 21.248 2.08976 20.1064 2.08976 18.6939C2.08976 17.2813 3.23139 16.1397 4.64391 16.1397C6.05644 16.1397 7.19806 17.2813 7.19806 18.6939C7.19806 20.1064 6.05644 21.248 4.64391 21.248ZM15.4458 5.34261C15.4458 3.93009 16.5875 2.78846 18 2.78846C19.4125 2.78846 20.5542 3.93009 20.5542 5.34261C20.5542 6.75514 19.4125 7.89676 18 7.89676C16.5875 7.89676 15.4458 6.7503 15.4458 5.34261ZM20.5542 32.0499C20.5542 33.4625 19.4125 34.6041 18 34.6041C16.5875 34.6041 15.4458 33.4625 15.4458 32.0499C15.4458 30.6374 16.5875 29.4958 18 29.4958C19.4077 29.4958 20.5542 30.6374 20.5542 32.0499ZM18 21.248C16.5875 21.248 15.4458 20.1064 15.4458 18.6939C15.4458 17.2813 16.5875 16.1397 18 16.1397C19.4125 16.1397 20.5542 17.2813 20.5542 18.6939C20.5542 20.1064 19.4077 21.248 18 21.248ZM31.3513 21.248C29.9387 21.248 28.7971 20.1064 28.7971 18.6939C28.7971 17.2813 29.9387 16.1397 31.3513 16.1397C32.7638 16.1397 33.9054 17.2813 33.9054 18.6939C33.9054 20.1064 32.7638 21.248 31.3513 21.248Z" fill="#76BC21"/>
</svg>