<svg width="22" height="12" viewBox="0 0 22 12" fill="none" xmlns="http://www.w3.org/2000/svg">
<g id="Group">
<path id="Vector" d="M1.08447 1.25788C0.936067 1.44534 0.97512 1.54688 1.28755 1.85149C2.44352 2.98013 10.8439 10.8103 10.9142 10.8259C10.961 10.8416 11.0391 10.8416 11.0899 10.8259C11.1563 10.8103 19.2599 3.25741 20.6736 1.89054C21.029 1.55078 21.068 1.44924 20.9157 1.25788C20.779 1.08214 20.6189 1.11729 20.3221 1.37895C20.1815 1.50392 18.0375 3.51125 15.5498 5.84273C13.066 8.17421 11.0196 10.08 11.0001 10.08C10.9845 10.08 8.92246 8.1625 6.42696 5.8193C3.92755 3.48001 1.77962 1.47267 1.65465 1.35942C1.38518 1.11729 1.21725 1.08605 1.08447 1.25788Z" fill="#74BC1F" stroke="#74BC1F" stroke-width="0.5"/>
</g>
</svg>
