<svg width="71" height="71" viewBox="0 0 71 71" fill="none" xmlns="http://www.w3.org/2000/svg">
<g filter="url(#filter0_i_11721_136238)">
<rect x="0.144653" y="35.3555" width="50" height="50" rx="14.5995" transform="rotate(-45 0.144653 35.3555)" fill="url(#paint0_diamond_11721_136238)"/>
<rect x="0.144653" y="35.3555" width="50" height="50" rx="14.5995" transform="rotate(-45 0.144653 35.3555)" fill="url(#paint1_diamond_11721_136238)"/>
<rect x="0.144653" y="35.3555" width="50" height="50" rx="14.5995" transform="rotate(-45 0.144653 35.3555)" fill="url(#paint2_linear_11721_136238)"/>
<rect x="0.144653" y="35.3555" width="50" height="50" rx="14.5995" transform="rotate(-45 0.144653 35.3555)" fill="url(#paint3_linear_11721_136238)"/>
<rect x="0.144653" y="35.3555" width="50" height="50" rx="14.5995" transform="rotate(-45 0.144653 35.3555)" fill="url(#paint4_linear_11721_136238)"/>
</g>
<rect x="5.50003" y="35.3555" width="42.4264" height="42.4264" rx="9.73298" transform="rotate(-45 5.50003 35.3555)" fill="black" fill-opacity="0.2"/>
<g filter="url(#filter1_i_11721_136238)">
<rect x="13.829" y="35.3555" width="30.6473" height="30.6473" rx="7.29973" transform="rotate(-45 13.829 35.3555)" fill="url(#paint5_linear_11721_136238)"/>
</g>
<path fill-rule="evenodd" clip-rule="evenodd" d="M31.9379 31.6291C32.2678 31.6291 32.5732 31.524 32.8227 31.3455C33.0881 31.1555 33.3816 30.977 33.708 30.977L41.6142 30.977C42.4102 31.0271 44.0167 31.5784 44.0746 33.3824C44.1305 35.1234 42.6183 35.8843 41.7754 36.0705C41.7163 36.0835 41.6561 36.0884 41.5956 36.0884L40.0529 36.0884C39.5962 36.0884 39.226 36.4586 39.226 36.9153V36.9153C39.226 37.372 39.5962 37.7421 40.0529 37.7421L41.6865 37.7421C42.8444 37.7421 45.6667 36.9905 45.6667 33.3824C45.6667 30.677 43.5477 29.5652 42.2887 29.292C42.1297 29.2575 41.9667 29.2481 41.804 29.2481L33.7414 29.2481C33.4072 29.2481 33.1081 29.0612 32.8388 28.8632C32.5864 28.6775 32.2749 28.5679 31.9379 28.5679C31.0954 28.5679 30.4125 29.2531 30.4125 30.0985C30.4125 30.9438 31.0954 31.6291 31.9379 31.6291ZM31.9379 30.9488C32.4059 30.9488 32.7854 30.5681 32.7854 30.0985C32.7854 29.6288 32.4059 29.2481 31.9379 29.2481C31.4699 29.2481 31.0904 29.6288 31.0904 30.0985C31.0904 30.5681 31.4699 30.9488 31.9379 30.9488Z" fill="#CAA47D" style="mix-blend-mode:multiply"/>
<path fill-rule="evenodd" clip-rule="evenodd" d="M29.6662 32.9474C29.0192 32.3835 28.0091 32.843 28.0091 33.7012L28.0091 39.4818C28.0091 39.8234 28.204 40.1278 28.4096 40.4006C28.6029 40.6571 28.7176 40.9766 28.7176 41.323C28.7176 42.1683 28.0346 42.8536 27.1921 42.8536C26.3497 42.8536 25.6667 42.1683 25.6667 41.323C25.6667 40.9841 25.7764 40.671 25.9622 40.4174C26.159 40.1487 26.3447 39.8503 26.3447 39.5171L26.3447 30.2481C26.3447 29.6959 26.7924 29.2481 27.3447 29.2481L27.6345 29.2481C27.8761 29.2481 28.1094 29.3356 28.2915 29.4943L34.0136 34.4813C34.1988 34.6428 34.3051 34.8764 34.3051 35.1221V35.1221C34.3051 35.8516 33.4465 36.2422 32.8966 35.7629L29.6662 32.9474ZM27.1921 42.1733C27.6602 42.1733 28.0396 41.7926 28.0396 41.323C28.0396 40.8533 27.6602 40.4726 27.1921 40.4726C26.7241 40.4726 26.3447 40.8533 26.3447 41.323C26.3447 41.7926 26.7241 42.1733 27.1921 42.1733Z" fill="#CAA47D" style="mix-blend-mode:multiply"/>
<path fill-rule="evenodd" clip-rule="evenodd" d="M30.9309 36.2423C30.3959 35.7798 29.565 36.1598 29.565 36.867V36.867C29.565 37.1049 29.6676 37.3313 29.8466 37.4881L35.6866 42.6057C35.869 42.7655 36.1032 42.8536 36.3457 42.8536L36.5616 42.8536C37.1139 42.8536 37.5616 42.4059 37.5616 41.8536L37.5616 35.3596C37.5616 34.8073 38.0093 34.3596 38.5616 34.3596L39.9759 34.3596C40.3076 34.3596 40.6048 34.5437 40.8728 34.739C41.1243 34.9223 41.4338 35.0305 41.7684 35.0305C42.6109 35.0305 43.2938 34.3452 43.2938 33.4998C43.2938 32.6545 42.6109 31.9692 41.7684 31.9692C41.4362 31.9692 41.1287 32.0758 40.8782 32.2568C40.6115 32.4494 40.3161 32.6307 39.9871 32.6307L36.9695 32.6307C36.4172 32.6307 35.9695 33.0784 35.9695 33.6307L35.9695 38.4121C35.9695 39.2684 34.9633 39.7286 34.3155 39.1685L30.9309 36.2423ZM42.6159 33.4998C42.6159 33.9695 42.2364 34.3502 41.7684 34.3502C41.3004 34.3502 40.921 33.9695 40.921 33.4998C40.921 33.0302 41.3004 32.6495 41.7684 32.6495C42.2364 32.6495 42.6159 33.0302 42.6159 33.4998Z" fill="#CAA47D" style="mix-blend-mode:multiply"/>
<defs>
<filter id="filter0_i_11721_136238" x="6.19196" y="6.04736" width="58.6161" height="58.6162" filterUnits="userSpaceOnUse" color-interpolation-filters="sRGB">
<feFlood flood-opacity="0" result="BackgroundImageFix"/>
<feBlend mode="normal" in="SourceGraphic" in2="BackgroundImageFix" result="shape"/>
<feColorMatrix in="SourceAlpha" type="matrix" values="0 0 0 0 0 0 0 0 0 0 0 0 0 0 0 0 0 0 127 0" result="hardAlpha"/>
<feOffset/>
<feGaussianBlur stdDeviation="4.125"/>
<feComposite in2="hardAlpha" operator="arithmetic" k2="-1" k3="1"/>
<feColorMatrix type="matrix" values="0 0 0 0 1 0 0 0 0 1 0 0 0 0 1 0 0 0 0.7 0"/>
<feBlend mode="normal" in2="shape" result="effect1_innerShadow_11721_136238"/>
</filter>
<filter id="filter1_i_11721_136238" x="16.8526" y="16.708" width="37.2945" height="37.2949" filterUnits="userSpaceOnUse" color-interpolation-filters="sRGB">
<feFlood flood-opacity="0" result="BackgroundImageFix"/>
<feBlend mode="normal" in="SourceGraphic" in2="BackgroundImageFix" result="shape"/>
<feColorMatrix in="SourceAlpha" type="matrix" values="0 0 0 0 0 0 0 0 0 0 0 0 0 0 0 0 0 0 127 0" result="hardAlpha"/>
<feOffset/>
<feGaussianBlur stdDeviation="4.125"/>
<feComposite in2="hardAlpha" operator="arithmetic" k2="-1" k3="1"/>
<feColorMatrix type="matrix" values="0 0 0 0 1 0 0 0 0 1 0 0 0 0 1 0 0 0 0.7 0"/>
<feBlend mode="normal" in2="shape" result="effect1_innerShadow_11721_136238"/>
</filter>
<radialGradient id="paint0_diamond_11721_136238" cx="0" cy="0" r="1" gradientUnits="userSpaceOnUse" gradientTransform="translate(-7.98034 72.0221) rotate(-17.4699) scale(82.1442)">
<stop offset="0.421875" stop-color="#A349EF"/>
<stop offset="1" stop-color="#FF65E6"/>
</radialGradient>
<radialGradient id="paint1_diamond_11721_136238" cx="0" cy="0" r="1" gradientUnits="userSpaceOnUse" gradientTransform="translate(15.6134 46.918) rotate(-26.2587) scale(39.2016 20.7538)">
<stop stop-color="#FF9FEA"/>
<stop offset="1" stop-color="white" stop-opacity="0"/>
</radialGradient>
<linearGradient id="paint2_linear_11721_136238" x1="1.39465" y1="36.3971" x2="47.4363" y2="87.4388" gradientUnits="userSpaceOnUse">
<stop stop-color="#7A96AC"/>
<stop offset="0.18" stop-color="#EAEFF3"/>
<stop offset="0.315" stop-color="#C2D4E1"/>
<stop offset="0.491919" stop-color="white"/>
<stop offset="0.615" stop-color="#D4DEE5"/>
<stop offset="0.785" stop-color="#ABBDC8"/>
<stop offset="0.955" stop-color="#BCCAD7"/>
</linearGradient>
<linearGradient id="paint3_linear_11721_136238" x1="6.81132" y1="44.1055" x2="45.5613" y2="83.2721" gradientUnits="userSpaceOnUse">
<stop stop-color="#9E8976"/>
<stop offset="0.195" stop-color="#7A5E50"/>
<stop offset="0.41" stop-color="#F6D0AB"/>
<stop offset="0.61" stop-color="#9D774E"/>
<stop offset="0.855" stop-color="#C99B70"/>
<stop offset="1" stop-color="#795F52"/>
</linearGradient>
<linearGradient id="paint4_linear_11721_136238" x1="49.871" y1="55.8967" x2="4.06643" y2="78.191" gradientUnits="userSpaceOnUse">
<stop stop-color="#9E8976"/>
<stop offset="0.195" stop-color="#7A5E50"/>
<stop offset="0.41" stop-color="#F6D0AB"/>
<stop offset="0.61" stop-color="#9D774E"/>
<stop offset="0.855" stop-color="#C99B70"/>
<stop offset="1" stop-color="#795F52"/>
</linearGradient>
<linearGradient id="paint5_linear_11721_136238" x1="16.1815" y1="37.708" x2="31.5848" y2="68.5147" gradientUnits="userSpaceOnUse">
<stop stop-color="#9E8976"/>
<stop offset="0.195" stop-color="#7A5E50"/>
<stop offset="0.41" stop-color="#F6D0AB"/>
<stop offset="0.61" stop-color="#9D774E"/>
<stop offset="0.855" stop-color="#C99B70"/>
<stop offset="1" stop-color="#795F52"/>
</linearGradient>
</defs>
</svg>
