<svg width="18" height="18" viewBox="0 0 18 18" fill="none" xmlns="http://www.w3.org/2000/svg">
<g id="Group">
<path id="Vector" fill-rule="evenodd" clip-rule="evenodd" d="M5.5 9.5H4.5V10.5H5.5V9.5ZM4.5 8.5C4.23478 8.5 3.98043 8.60536 3.79289 8.79289C3.60536 8.98043 3.5 9.23478 3.5 9.5V10.5C3.5 10.7652 3.60536 11.0196 3.79289 11.2071C3.98043 11.3946 4.23478 11.5 4.5 11.5H5.5C5.76522 11.5 6.01957 11.3946 6.20711 11.2071C6.39464 11.0196 6.5 10.7652 6.5 10.5V9.5C6.5 9.23478 6.39464 8.98043 6.20711 8.79289C6.01957 8.60536 5.76522 8.5 5.5 8.5H4.5ZM9.5 9.5H8.5V10.5H9.5V9.5ZM8.5 8.5C8.23478 8.5 7.98043 8.60536 7.79289 8.79289C7.60536 8.98043 7.5 9.23478 7.5 9.5V10.5C7.5 10.7652 7.60536 11.0196 7.79289 11.2071C7.98043 11.3946 8.23478 11.5 8.5 11.5H9.5C9.76522 11.5 10.0196 11.3946 10.2071 11.2071C10.3946 11.0196 10.5 10.7652 10.5 10.5V9.5C10.5 9.23478 10.3946 8.98043 10.2071 8.79289C10.0196 8.60536 9.76522 8.5 9.5 8.5H8.5ZM13.5 9.5H12.5V10.5H13.5V9.5ZM12.5 8.5C12.2348 8.5 11.9804 8.60536 11.7929 8.79289C11.6054 8.98043 11.5 9.23478 11.5 9.5V10.5C11.5 10.7652 11.6054 11.0196 11.7929 11.2071C11.9804 11.3946 12.2348 11.5 12.5 11.5H13.5C13.7652 11.5 14.0196 11.3946 14.2071 11.2071C14.3946 11.0196 14.5 10.7652 14.5 10.5V9.5C14.5 9.23478 14.3946 8.98043 14.2071 8.79289C14.0196 8.60536 13.7652 8.5 13.5 8.5H12.5ZM5.5 13.5H4.5V14.5H5.5V13.5ZM4.5 12.5C4.23478 12.5 3.98043 12.6054 3.79289 12.7929C3.60536 12.9804 3.5 13.2348 3.5 13.5V14.5C3.5 14.7652 3.60536 15.0196 3.79289 15.2071C3.98043 15.3946 4.23478 15.5 4.5 15.5H5.5C5.76522 15.5 6.01957 15.3946 6.20711 15.2071C6.39464 15.0196 6.5 14.7652 6.5 14.5V13.5C6.5 13.2348 6.39464 12.9804 6.20711 12.7929C6.01957 12.6054 5.76522 12.5 5.5 12.5H4.5ZM9.5 13.5H8.5V14.5H9.5V13.5ZM8.5 12.5C8.23478 12.5 7.98043 12.6054 7.79289 12.7929C7.60536 12.9804 7.5 13.2348 7.5 13.5V14.5C7.5 14.7652 7.60536 15.0196 7.79289 15.2071C7.98043 15.3946 8.23478 15.5 8.5 15.5H9.5C9.76522 15.5 10.0196 15.3946 10.2071 15.2071C10.3946 15.0196 10.5 14.7652 10.5 14.5V13.5C10.5 13.2348 10.3946 12.9804 10.2071 12.7929C10.0196 12.6054 9.76522 12.5 9.5 12.5H8.5ZM13.5 13.5H12.5V14.5H13.5V13.5ZM12.5 12.5C12.2348 12.5 11.9804 12.6054 11.7929 12.7929C11.6054 12.9804 11.5 13.2348 11.5 13.5V14.5C11.5 14.7652 11.6054 15.0196 11.7929 15.2071C11.9804 15.3946 12.2348 15.5 12.5 15.5H13.5C13.7652 15.5 14.0196 15.3946 14.2071 15.2071C14.3946 15.0196 14.5 14.7652 14.5 14.5V13.5C14.5 13.2348 14.3946 12.9804 14.2071 12.7929C14.0196 12.6054 13.7652 12.5 13.5 12.5H12.5Z" fill="#74BC1F"/>
<path id="Vector_2" fill-rule="evenodd" clip-rule="evenodd" d="M2 2.5C1.86739 2.5 1.74021 2.55268 1.64645 2.64645C1.55268 2.74021 1.5 2.86739 1.5 3V16.5C1.5 16.6326 1.55268 16.7598 1.64645 16.8536C1.74021 16.9473 1.86739 17 2 17H16C16.275 17 16.5 16.7755 16.5 16.499V3.001C16.5 2.724 16.275 2.5 16 2.5H14.5V1.5H16C16.829 1.5 17.5 2.1735 17.5 3.001V16.499C17.5001 16.6961 17.4614 16.8912 17.3861 17.0733C17.3108 17.2554 17.2003 17.4209 17.061 17.5603C16.9217 17.6997 16.7563 17.8103 16.5743 17.8857C16.3922 17.9612 16.1971 18 16 18H2C1.60218 18 1.22064 17.842 0.93934 17.5607C0.658035 17.2794 0.5 16.8978 0.5 16.5V3C0.5 2.60218 0.658035 2.22064 0.93934 1.93934C1.22064 1.65804 1.60218 1.5 2 1.5H4.5V2.5H2ZM12.5 2.5H6.5V1.5H12.5V2.5Z" fill="#74BC1F"/>
<path id="Vector_3" fill-rule="evenodd" clip-rule="evenodd" d="M16.5 7H1.5V6H16.5V7Z" fill="#74BC1F"/>
<path id="Vector_4" d="M4.5 0.5C4.5 0.367392 4.55268 0.240215 4.64645 0.146447C4.74021 0.0526785 4.86739 0 5 0C5.13261 0 5.25979 0.0526785 5.35355 0.146447C5.44732 0.240215 5.5 0.367392 5.5 0.5V4C5.5 4.13261 5.44732 4.25979 5.35355 4.35355C5.25979 4.44732 5.13261 4.5 5 4.5C4.86739 4.5 4.74021 4.44732 4.64645 4.35355C4.55268 4.25979 4.5 4.13261 4.5 4V0.5ZM12.5 0.5C12.5 0.367392 12.5527 0.240215 12.6464 0.146447C12.7402 0.0526785 12.8674 0 13 0C13.1326 0 13.2598 0.0526785 13.3536 0.146447C13.4473 0.240215 13.5 0.367392 13.5 0.5V4C13.5 4.13261 13.4473 4.25979 13.3536 4.35355C13.2598 4.44732 13.1326 4.5 13 4.5C12.8674 4.5 12.7402 4.44732 12.6464 4.35355C12.5527 4.25979 12.5 4.13261 12.5 4V0.5Z" fill="#74BC1F"/>
</g>
</svg>
