<svg width="24" height="24" viewBox="0 0 24 24" fill="none" xmlns="http://www.w3.org/2000/svg">
<g id="icon / eyes open">
<path id="Vector" d="M21.6488 13.7143H21.6531H21.6445H21.6488ZM21.0445 13.2685C21.1303 13.5411 21.3771 13.7125 21.6488 13.7143C21.7088 13.7143 21.7748 13.6971 21.8417 13.68C22.176 13.5771 22.3645 13.2085 22.2531 12.8743C22.2274 12.7971 19.656 5.14282 12 5.14282C4.34397 5.14282 1.77169 12.7971 1.74597 12.8743C1.63455 13.2085 1.82312 13.5685 2.1574 13.68C2.50026 13.7914 2.86026 13.6028 2.97169 13.2685L2.97426 13.2643C3.08826 12.93 5.32026 6.42854 12.0085 6.42854C18.7303 6.42854 20.9503 12.9857 21.0445 13.2685ZM7.71426 13.7143C7.71426 12.5776 8.16579 11.4875 8.96952 10.6838C9.77324 9.88007 10.8633 9.42854 12 9.42854C13.1366 9.42854 14.2267 9.88007 15.0304 10.6838C15.8342 11.4875 16.2857 12.5776 16.2857 13.7143C16.2857 14.8509 15.8342 15.941 15.0304 16.7447C14.2267 17.5484 13.1366 18 12 18C10.8633 18 9.77324 17.5484 8.96952 16.7447C8.16579 15.941 7.71426 14.8509 7.71426 13.7143Z" fill="#74BC1F"/>
</g>
</svg>
