<svg width="70" height="70" viewBox="0 0 70 70" fill="none" xmlns="http://www.w3.org/2000/svg">
<path d="M6.30606 13.9048C5.79308 14.11 5.67909 14.7255 6.05527 15.2043L6.28326 15.5007H10.5011C13.2597 15.5007 14.7987 15.4551 14.9469 15.3753C15.494 15.0903 15.4484 14.1784 14.8671 13.9162C14.5251 13.768 6.69364 13.7452 6.30606 13.9048Z" fill="white"/>
<path d="M18.5263 14.0074C17.9791 14.2582 17.7397 14.5089 17.5003 15.0789C17.3521 15.4323 17.3293 16.2417 17.3293 20.3911V25.2929L14.5593 25.3271C11.8234 25.3613 11.7778 25.3613 11.3674 25.6462C11.1394 25.7944 10.843 26.1364 10.6948 26.3872C10.4327 26.8432 10.4327 26.8888 10.3985 31.2548L10.3643 35.655L8.83672 35.7006C7.36619 35.7348 7.29779 35.7462 6.83041 36.0768C6.56822 36.2592 6.22624 36.6467 6.07805 36.9203C5.85006 37.3649 5.81586 37.5815 5.81586 38.7785C5.81586 40.0666 5.82726 40.1464 6.10084 40.4086C6.45423 40.7734 6.88741 40.7734 7.24079 40.4086C7.50298 40.1578 7.52578 40.0552 7.52578 38.938C7.52578 38.0033 7.55998 37.7069 7.70817 37.5701C7.86777 37.4105 9.61189 37.3877 25.2634 37.3877H42.6362V46.2793H23.3825L23.0063 45.5612C22.5161 44.6264 21.1368 43.2357 20.1792 42.7113C19.1191 42.1299 17.9563 41.8335 16.7024 41.8335C15.4712 41.8335 14.6049 42.0387 13.4535 42.5973C12.382 43.1217 10.9456 44.501 10.3985 45.5612L10.0223 46.2793H7.52578V44.9114C7.52578 43.6004 7.51438 43.5206 7.24079 43.2585C6.88741 42.8937 6.45423 42.8937 6.10084 43.2585L5.81586 43.532V46.7011C5.81586 50.1893 5.86145 50.4287 6.56822 51.0899C7.0584 51.5459 7.42318 51.6371 8.76832 51.6371H9.98807L10.1933 52.0589C10.558 52.834 11.4016 53.9056 12.097 54.487C12.8607 55.1139 14.1033 55.7523 15.0494 55.9803C16.0982 56.2425 17.7967 56.1627 18.8797 55.8093C20.601 55.2507 22.1627 53.974 22.9607 52.435L23.3825 51.6371H36.8111L37.0391 51.3407C37.1759 51.1697 37.2784 50.9645 37.2784 50.8847C37.2784 50.5541 36.9935 50.1551 36.6743 50.0412C36.4577 49.9728 34.155 49.9272 30.0854 49.9272H23.8271V47.9892H46.17V49.9272H43.2632C40.9263 49.9272 40.2765 49.9614 40.0257 50.0981C39.4899 50.3717 39.3874 50.9873 39.8205 51.3863C40.0827 51.6371 40.1511 51.6371 43.3544 51.6371H46.6146L47.0364 52.435C47.8344 53.974 49.3961 55.2507 51.1174 55.8093C52.2004 56.1627 53.8989 56.2425 54.9477 55.9803C55.8938 55.7523 57.3187 55.0227 58.0027 54.43C58.6297 53.8714 59.4619 52.777 59.8038 52.0589L60.009 51.6371H61.2402C62.0267 51.6371 62.6195 51.5801 62.8475 51.4775C63.3263 51.2837 63.9077 50.6111 64.0672 50.0754C64.1584 49.7676 64.1812 46.2793 64.1584 38.2997L64.1242 26.9572L63.8051 26.3758C63.5771 25.9768 62.3915 24.7001 60.1002 22.4202C57.0566 19.4107 56.6576 19.0459 56.1332 18.8749C55.6202 18.704 54.9135 18.6926 49.8977 18.7154L44.2549 18.7495L43.7534 19.0915C43.4912 19.2853 43.1378 19.6729 42.9782 19.9465C42.7046 20.4367 42.6932 20.5507 42.659 22.785C42.6134 25.3157 42.6704 25.6576 43.1948 25.8742C43.5368 26.011 44.0155 25.8856 44.1979 25.6234C44.2435 25.5436 44.3119 24.4037 44.3461 23.1042C44.4031 20.9155 44.4259 20.7103 44.6197 20.5621C44.8135 20.4253 45.7597 20.4025 50.1599 20.4025H55.4834L55.928 20.7331C56.6804 21.2916 62.2205 26.9344 62.3459 27.2764C62.4257 27.4816 62.4713 28.9635 62.4713 31.3004V34.9938H59.4277C56.0648 34.9938 55.8596 35.028 55.358 35.712C55.1414 36.0084 55.1187 36.2022 55.1187 37.6499C55.1187 39.0292 55.1528 39.3256 55.3352 39.622C55.7684 40.3402 55.8482 40.3516 59.3251 40.3516H62.4713V46.2793H59.9748L59.5986 45.5612C59.0515 44.501 57.6151 43.1217 56.5436 42.5973C55.3922 42.0387 54.5259 41.8335 53.2947 41.8335C52.0864 41.8335 50.9122 42.1185 49.8749 42.6657C48.9629 43.1445 47.481 44.6378 46.9908 45.5612L46.6146 46.2793H44.3461V28.7583L44.0839 28.5189C43.7306 28.1883 43.2632 28.1997 42.9212 28.5531L42.6362 28.8267V35.6778H39.7863V31.3232C39.7863 27.1168 39.7749 26.9572 39.5469 26.467C39.3988 26.1706 39.1138 25.8514 38.8402 25.669L38.3842 25.3613L32.8326 25.2929V20.3455C32.8326 17.1194 32.787 15.2955 32.7073 15.0789C32.5363 14.6229 32.1601 14.2468 31.6357 14.0074C31.2139 13.8136 30.7693 13.7908 25.081 13.7908C19.404 13.7908 18.9481 13.8136 18.5263 14.0074ZM22.3679 17.1764C22.4021 18.533 22.4477 18.9205 22.6073 19.1599C23.0177 19.7755 23.8043 19.8895 24.5908 19.4335L25.081 19.1371L25.5712 19.4335C26.4489 19.9351 27.3381 19.7413 27.6573 18.9547C27.7713 18.704 27.8169 18.0884 27.8169 17.0396V15.4893L31.0657 15.5577L31.0999 20.4253L31.1227 25.3043H19.0393V20.4709C19.0393 16.709 19.0735 15.6261 19.1875 15.5805C19.2559 15.5463 19.9968 15.5121 20.8176 15.5121L22.3223 15.5007L22.3679 17.1764ZM26.1069 16.595C26.1069 17.5982 26.0841 17.6894 25.9132 17.6096C25.0924 17.279 25.0696 17.279 24.2602 17.6096C24.0778 17.678 24.055 17.5982 24.055 16.6748C24.055 16.1163 24.0892 15.6147 24.1348 15.5805C24.169 15.5349 24.6364 15.5007 25.1608 15.5007H26.1069V16.595ZM15.5054 30.4568L15.893 30.8444C16.3946 31.346 16.9874 31.3688 17.7283 30.9356L18.2299 30.6506L18.6631 30.9356C19.3129 31.3802 19.974 31.346 20.4756 30.8444L20.8632 30.4568V27.0028L24.226 27.0712L24.2602 31.3688L24.283 35.6778H12.0856V31.4828C12.0856 28.3707 12.1198 27.2536 12.2224 27.151C12.3136 27.0598 12.8607 27.0142 13.9323 27.0142H15.5054V30.4568ZM19.1533 28.0971C19.1533 28.6899 19.1305 29.1801 19.1077 29.1801C19.0849 29.1801 18.9139 29.1003 18.7429 29.0091C18.5605 28.9179 18.3097 28.8381 18.1843 28.8381C18.0589 28.8381 17.8081 28.9179 17.6257 29.0091C17.4547 29.1003 17.2837 29.1801 17.2609 29.1801C17.2381 29.1801 17.2153 28.6899 17.2153 28.0971V27.0142H19.1533V28.0971ZM29.2988 28.6101C29.2988 30.3314 29.39 30.6962 29.8916 31.0496C30.2792 31.3232 30.9745 31.2776 31.5331 30.947L32.0347 30.6506L32.4907 30.947C33.129 31.346 33.7446 31.3346 34.2234 30.9014L34.5996 30.5708L34.7136 27.0712L36.2411 27.037C37.267 27.0142 37.8142 27.0484 37.9168 27.1396C38.0536 27.2422 38.0764 28.0287 38.0764 31.4714V35.6778H25.993V27.0142H29.2988V28.6101ZM32.9466 29.1573L32.4793 28.9749C32.0119 28.7925 31.9777 28.8039 31.2139 29.1231C31.0315 29.1915 31.0087 29.1117 31.0087 28.1085V27.0142H32.9466V29.1573ZM58.8235 38.6417H56.7716V36.7037H58.8235V38.6417ZM62.4713 38.6417H60.5334V36.7037H62.4713V38.6417ZM18.1387 43.7258C19.7346 44.2046 20.9202 45.2078 21.6269 46.7011C22.0145 47.4877 22.0601 47.7043 22.0943 48.6846C22.1285 49.4826 22.0943 49.9614 21.9461 50.4515C21.1938 53.062 18.5491 54.8061 15.95 54.4072C12.2794 53.8372 10.1819 49.95 11.7664 46.6213C12.4048 45.2762 13.8069 44.1134 15.2774 43.703C16.007 43.4978 17.4091 43.5092 18.1387 43.7258ZM54.5715 43.6574C56.042 43.9994 57.5695 45.242 58.2307 46.6213C59.8038 49.9272 57.7861 53.7346 54.1269 54.3844C52.0408 54.7605 49.6469 53.5978 48.5639 51.6941C48.0282 50.7593 47.8458 49.9272 47.9028 48.6846C47.937 47.7043 47.9826 47.4877 48.3702 46.7011C49.2935 44.7518 51.1288 43.5662 53.2377 43.5548C53.7051 43.5548 54.3093 43.6004 54.5715 43.6574ZM9.52069 49.9272H8.66573C8.14135 49.9272 7.74237 49.8702 7.66257 49.7904C7.58278 49.7106 7.52578 49.3116 7.52578 48.8214V47.9892H9.52069V49.9272ZM62.4713 48.8214C62.4713 49.3116 62.4143 49.7106 62.3345 49.7904C62.2547 49.8702 61.8557 49.9272 61.3428 49.9272H60.4764V47.9892H62.4713V48.8214Z" fill="white"/>
<path d="M15.8132 46.4389C14.7417 46.8265 14.0235 47.8525 14.0235 49.0038C14.0349 50.5199 15.1748 51.6371 16.7024 51.6371C17.8309 51.6371 18.7087 51.0557 19.1533 50.0184C19.4496 49.3344 19.4268 48.3996 19.1077 47.7841C18.5035 46.6099 17.033 46.0057 15.8132 46.4389ZM17.3407 48.3198C17.7625 48.753 17.7853 49.2546 17.3863 49.6422C16.7936 50.2464 15.7334 49.8246 15.7334 48.9924C15.7448 48.0804 16.7024 47.6815 17.3407 48.3198Z" fill="white"/>
<path d="M52.3714 46.4617C51.8356 46.6555 51.163 47.2597 50.8894 47.7841C50.2169 49.0836 50.9009 50.9075 52.2802 51.4775C52.816 51.7055 53.8875 51.6713 54.4461 51.4205C54.9819 51.1697 55.6886 50.406 55.871 49.836C56.0876 49.1862 55.9508 48.1945 55.5632 47.5789C54.9135 46.5187 53.5227 46.0286 52.3714 46.4617ZM53.7279 48.1261C54.6399 48.6048 54.3207 49.9272 53.2947 49.9272C52.3942 49.9272 52.018 48.9696 52.6564 48.3199C53.0098 47.9665 53.3289 47.9095 53.7279 48.1261Z" fill="white"/>
<path d="M9.97667 17.7806C9.69168 18.0998 9.71448 18.647 10.0223 18.9547C10.2617 19.1941 10.3529 19.2055 12.553 19.2055H14.8442L15.1178 18.8864C15.4484 18.4988 15.4598 18.248 15.152 17.849L14.924 17.5526H12.553C10.3187 17.5526 10.1705 17.564 9.97667 17.7806Z" fill="white"/>
<path d="M8.11856 21.4626C7.76518 21.8388 7.78798 22.3746 8.16416 22.671C8.46055 22.899 8.60874 22.9104 11.527 22.9104C13.5561 22.9104 14.6733 22.8648 14.8671 22.785C15.4484 22.5228 15.494 21.6108 14.9469 21.3258C14.8101 21.246 13.5675 21.2004 11.5384 21.2004C8.36935 21.2004 8.35795 21.2004 8.11856 21.4626Z" fill="white"/>
<path d="M47.4468 22.5798C47.1276 22.7394 46.8654 22.9902 46.683 23.3094L46.398 23.7881V27.6868C46.398 31.859 46.4094 31.9046 46.9908 32.4517C47.6292 33.0445 47.6976 33.0559 53.3745 33.0559C56.5322 33.0559 58.8121 33.0103 59.0629 32.9419C59.6328 32.7823 60.2598 32.1212 60.408 31.517C60.5676 30.8786 60.5676 28.9179 60.408 28.3251C60.3054 27.9489 59.8266 27.4132 57.7633 25.3271C56.3726 23.9249 55.0388 22.6824 54.8109 22.557C54.4233 22.3632 54.1155 22.3404 51.163 22.3404C48.108 22.3404 47.9142 22.3518 47.4468 22.5798ZM58.8235 28.7925V29.9439C58.8235 30.776 58.7779 31.1294 58.6639 31.2206C58.5613 31.3118 57.068 31.3346 53.3403 31.3232L48.165 31.289L48.1308 27.8122C48.1194 25.897 48.1308 24.2783 48.165 24.1985C48.1992 24.0845 48.8945 24.0503 51.163 24.0503H54.1041L58.8235 28.7925Z" fill="white"/>
</svg>
