<svg width="18" height="18" viewBox="0 0 18 18" fill="none" xmlns="http://www.w3.org/2000/svg">
<g id="icon / pause">
<g id="Vector">
<mask id="path-1-inside-1_8257_6890" fill="white">
<path d="M14.0625 2.53125H11.25C11.0262 2.53125 10.8116 2.62014 10.6534 2.77838C10.4951 2.93661 10.4062 3.15122 10.4062 3.375V14.625C10.4062 14.8488 10.4951 15.0634 10.6534 15.2216C10.8116 15.3799 11.0262 15.4688 11.25 15.4688H14.0625C14.2863 15.4688 14.5009 15.3799 14.6591 15.2216C14.8174 15.0634 14.9062 14.8488 14.9062 14.625V3.375C14.9062 3.15122 14.8174 2.93661 14.6591 2.77838C14.5009 2.62014 14.2863 2.53125 14.0625 2.53125ZM14.3438 14.625C14.3438 14.6996 14.3141 14.7711 14.2614 14.8239C14.2086 14.8766 14.1371 14.9062 14.0625 14.9062H11.25C11.1754 14.9062 11.1039 14.8766 11.0511 14.8239C10.9984 14.7711 10.9688 14.6996 10.9688 14.625V3.375C10.9688 3.30041 10.9984 3.22887 11.0511 3.17613C11.1039 3.12338 11.1754 3.09375 11.25 3.09375H14.0625C14.1371 3.09375 14.2086 3.12338 14.2614 3.17613C14.3141 3.22887 14.3438 3.30041 14.3438 3.375V14.625ZM6.75 2.53125H3.9375C3.71372 2.53125 3.49911 2.62014 3.34088 2.77838C3.18264 2.93661 3.09375 3.15122 3.09375 3.375V14.625C3.09375 14.8488 3.18264 15.0634 3.34088 15.2216C3.49911 15.3799 3.71372 15.4688 3.9375 15.4688H6.75C6.97378 15.4688 7.18839 15.3799 7.34662 15.2216C7.50486 15.0634 7.59375 14.8488 7.59375 14.625V3.375C7.59375 3.15122 7.50486 2.93661 7.34662 2.77838C7.18839 2.62014 6.97378 2.53125 6.75 2.53125ZM7.03125 14.625C7.03125 14.6996 7.00162 14.7711 6.94887 14.8239C6.89613 14.8766 6.82459 14.9062 6.75 14.9062H3.9375C3.86291 14.9062 3.79137 14.8766 3.73863 14.8239C3.68588 14.7711 3.65625 14.6996 3.65625 14.625V3.375C3.65625 3.30041 3.68588 3.22887 3.73863 3.17613C3.79137 3.12338 3.86291 3.09375 3.9375 3.09375H6.75C6.82459 3.09375 6.89613 3.12338 6.94887 3.17613C7.00162 3.22887 7.03125 3.30041 7.03125 3.375V14.625Z"/>
</mask>
<path d="M14.9062 3.375H15.9062H14.9062ZM3.09375 14.625H4.09375H3.09375ZM7.59375 14.625H8.59375H7.59375ZM7.59375 3.375H8.59375H7.59375ZM14.0625 1.53125H11.25V3.53125H14.0625V1.53125ZM11.25 1.53125C10.761 1.53125 10.292 1.7255 9.94627 2.07127L11.3605 3.48549C11.3312 3.51479 11.2914 3.53125 11.25 3.53125V1.53125ZM9.94627 2.07127C9.6005 2.41704 9.40625 2.88601 9.40625 3.375H11.4062C11.4062 3.41644 11.3898 3.45618 11.3605 3.48549L9.94627 2.07127ZM9.40625 3.375V14.625H11.4062V3.375H9.40625ZM9.40625 14.625C9.40625 15.114 9.6005 15.583 9.94627 15.9287L11.3605 14.5145C11.3898 14.5438 11.4062 14.5836 11.4062 14.625H9.40625ZM9.94627 15.9287C10.292 16.2745 10.761 16.4688 11.25 16.4688V14.4688C11.2914 14.4688 11.3312 14.4852 11.3605 14.5145L9.94627 15.9287ZM11.25 16.4688H14.0625V14.4688H11.25V16.4688ZM14.0625 16.4688C14.5515 16.4688 15.0205 16.2745 15.3662 15.9287L13.952 14.5145C13.9813 14.4852 14.0211 14.4688 14.0625 14.4688V16.4688ZM15.3662 15.9287C15.712 15.583 15.9062 15.114 15.9062 14.625H13.9062C13.9062 14.5836 13.9227 14.5438 13.952 14.5145L15.3662 15.9287ZM15.9062 14.625V3.375H13.9062V14.625H15.9062ZM15.9062 3.375C15.9062 2.88601 15.712 2.41704 15.3662 2.07127L13.952 3.48549C13.9227 3.45618 13.9062 3.41644 13.9062 3.375H15.9062ZM15.3662 2.07127C15.0205 1.7255 14.5515 1.53125 14.0625 1.53125V3.53125C14.0211 3.53125 13.9813 3.51479 13.952 3.48549L15.3662 2.07127ZM13.3438 14.625C13.3438 14.4344 13.4195 14.2516 13.5543 14.1168L14.9685 15.531C15.2088 15.2907 15.3438 14.9648 15.3438 14.625H13.3438ZM13.5543 14.1168C13.6891 13.982 13.8719 13.9062 14.0625 13.9062V15.9062C14.4023 15.9062 14.7282 15.7713 14.9685 15.531L13.5543 14.1168ZM14.0625 13.9062H11.25V15.9062H14.0625V13.9062ZM11.25 13.9062C11.4406 13.9062 11.6234 13.982 11.7582 14.1168L10.344 15.531C10.5843 15.7713 10.9102 15.9062 11.25 15.9062V13.9062ZM11.7582 14.1168C11.893 14.2516 11.9688 14.4344 11.9688 14.625H9.96875C9.96875 14.9648 10.1037 15.2907 10.344 15.531L11.7582 14.1168ZM11.9688 14.625V3.375H9.96875V14.625H11.9688ZM11.9688 3.375C11.9688 3.56562 11.893 3.74844 11.7582 3.88323L10.344 2.46902C10.1037 2.7093 9.96875 3.03519 9.96875 3.375H11.9688ZM11.7582 3.88323C11.6234 4.01803 11.4406 4.09375 11.25 4.09375V2.09375C10.9102 2.09375 10.5843 2.22874 10.344 2.46902L11.7582 3.88323ZM11.25 4.09375H14.0625V2.09375H11.25V4.09375ZM14.0625 4.09375C13.8719 4.09375 13.6891 4.01803 13.5543 3.88323L14.9685 2.46902C14.7282 2.22874 14.4023 2.09375 14.0625 2.09375V4.09375ZM13.5543 3.88323C13.4195 3.74844 13.3438 3.56562 13.3438 3.375H15.3438C15.3438 3.03519 15.2088 2.7093 14.9685 2.46902L13.5543 3.88323ZM13.3438 3.375V14.625H15.3438V3.375H13.3438ZM6.75 1.53125H3.9375V3.53125H6.75V1.53125ZM3.9375 1.53125C3.44851 1.53125 2.97954 1.7255 2.63377 2.07127L4.04799 3.48549C4.01868 3.51479 3.97894 3.53125 3.9375 3.53125V1.53125ZM2.63377 2.07127C2.288 2.41704 2.09375 2.88601 2.09375 3.375H4.09375C4.09375 3.41644 4.07729 3.45618 4.04799 3.48549L2.63377 2.07127ZM2.09375 3.375V14.625H4.09375V3.375H2.09375ZM2.09375 14.625C2.09375 15.114 2.288 15.583 2.63377 15.9287L4.04799 14.5145C4.07729 14.5438 4.09375 14.5836 4.09375 14.625H2.09375ZM2.63377 15.9287C2.97954 16.2745 3.44851 16.4688 3.9375 16.4688V14.4688C3.97894 14.4688 4.01868 14.4852 4.04799 14.5145L2.63377 15.9287ZM3.9375 16.4688H6.75V14.4688H3.9375V16.4688ZM6.75 16.4688C7.23899 16.4688 7.70796 16.2745 8.05373 15.9287L6.63951 14.5145C6.66882 14.4852 6.70856 14.4688 6.75 14.4688V16.4688ZM8.05373 15.9287C8.3995 15.583 8.59375 15.114 8.59375 14.625H6.59375C6.59375 14.5836 6.61021 14.5438 6.63951 14.5145L8.05373 15.9287ZM8.59375 14.625V3.375H6.59375V14.625H8.59375ZM8.59375 3.375C8.59375 2.88601 8.3995 2.41704 8.05373 2.07127L6.63951 3.48549C6.61021 3.45618 6.59375 3.41644 6.59375 3.375H8.59375ZM8.05373 2.07127C7.70796 1.7255 7.23899 1.53125 6.75 1.53125V3.53125C6.70856 3.53125 6.66882 3.51479 6.63951 3.48549L8.05373 2.07127ZM6.03125 14.625C6.03125 14.4344 6.10697 14.2516 6.24177 14.1168L7.65598 15.531C7.89626 15.2907 8.03125 14.9648 8.03125 14.625H6.03125ZM6.24177 14.1168C6.37656 13.982 6.55938 13.9062 6.75 13.9062V15.9062C7.08981 15.9062 7.4157 15.7713 7.65598 15.531L6.24177 14.1168ZM6.75 13.9062H3.9375V15.9062H6.75V13.9062ZM3.9375 13.9062C4.12812 13.9062 4.31094 13.982 4.44573 14.1168L3.03152 15.531C3.2718 15.7713 3.59769 15.9062 3.9375 15.9062V13.9062ZM4.44573 14.1168C4.58053 14.2516 4.65625 14.4344 4.65625 14.625H2.65625C2.65625 14.9648 2.79124 15.2907 3.03152 15.531L4.44573 14.1168ZM4.65625 14.625V3.375H2.65625V14.625H4.65625ZM4.65625 3.375C4.65625 3.56563 4.58052 3.74844 4.44573 3.88323L3.03152 2.46902C2.79124 2.7093 2.65625 3.03519 2.65625 3.375H4.65625ZM4.44573 3.88323C4.31094 4.01802 4.12813 4.09375 3.9375 4.09375V2.09375C3.59769 2.09375 3.2718 2.22874 3.03152 2.46902L4.44573 3.88323ZM3.9375 4.09375H6.75V2.09375H3.9375V4.09375ZM6.75 4.09375C6.55938 4.09375 6.37656 4.01803 6.24177 3.88323L7.65598 2.46902C7.4157 2.22874 7.08981 2.09375 6.75 2.09375V4.09375ZM6.24177 3.88323C6.10697 3.74844 6.03125 3.56562 6.03125 3.375H8.03125C8.03125 3.03519 7.89626 2.7093 7.65598 2.46902L6.24177 3.88323ZM6.03125 3.375V14.625H8.03125V3.375H6.03125Z" fill="#FEAC4A" mask="url(#path-1-inside-1_8257_6890)"/>
</g>
</g>
</svg>
