<svg width="24" height="24" viewBox="0 0 24 24" fill="none" xmlns="http://www.w3.org/2000/svg">
<g id="icon / phone">
<path id="Vector" d="M10.125 18C10.0255 18 9.93016 18.0395 9.85983 18.1098C9.78951 18.1802 9.75 18.2755 9.75 18.375C9.75 18.4745 9.78951 18.5698 9.85983 18.6402C9.93016 18.7105 10.0255 18.75 10.125 18.75H13.875C13.9745 18.75 14.0698 18.7105 14.1402 18.6402C14.2105 18.5698 14.25 18.4745 14.25 18.375C14.25 18.2755 14.2105 18.1802 14.1402 18.1098C14.0698 18.0395 13.9745 18 13.875 18H10.125ZM7.6875 1.5C7.04103 1.5 6.42105 1.75681 5.96393 2.21393C5.50681 2.67105 5.25 3.29103 5.25 3.9375V20.0625C5.25 20.709 5.50681 21.329 5.96393 21.7861C6.42105 22.2432 7.04103 22.5 7.6875 22.5H16.3125C16.959 22.5 17.579 22.2432 18.0361 21.7861C18.4932 21.329 18.75 20.709 18.75 20.0625V3.9375C18.75 3.29103 18.4932 2.67105 18.0361 2.21393C17.579 1.75681 16.959 1.5 16.3125 1.5H7.6875ZM6 3.9375C6 3.48995 6.17779 3.06072 6.49426 2.74426C6.81073 2.42779 7.23995 2.25 7.6875 2.25H16.3125C16.7601 2.25 17.1893 2.42779 17.5057 2.74426C17.8222 3.06072 18 3.48995 18 3.9375V20.0625C18 20.5101 17.8222 20.9393 17.5057 21.2557C17.1893 21.5722 16.7601 21.75 16.3125 21.75H7.6875C7.23995 21.75 6.81073 21.5722 6.49426 21.2557C6.17779 20.9393 6 20.5101 6 20.0625V3.9375Z" fill="#74BC1F"/>
</g>
</svg>
