<svg width="17" height="16" viewBox="0 0 17 16" fill="none" xmlns="http://www.w3.org/2000/svg">
<g id="icon / close">
<path id="Vector" d="M12.6543 3.84575C12.7246 3.91607 12.7641 4.01146 12.7641 4.11091C12.7641 4.21037 12.7246 4.30575 12.6543 4.37608L9.03036 8L12.6543 11.6239C12.7246 11.6942 12.7641 11.7896 12.7641 11.8891C12.7641 11.9885 12.7246 12.0839 12.6543 12.1543C12.584 12.2246 12.4886 12.2641 12.3891 12.2641C12.2897 12.2641 12.1943 12.2246 12.124 12.1543L8.50003 8.53033L4.87611 12.1543C4.80578 12.2246 4.7104 12.2641 4.61095 12.2641C4.51149 12.2641 4.41611 12.2246 4.34578 12.1543C4.27545 12.0839 4.23595 11.9885 4.23595 11.8891C4.23595 11.7896 4.27545 11.6942 4.34578 11.6239L7.9697 8L4.34578 4.37608C4.27545 4.30575 4.23595 4.21037 4.23595 4.11091C4.23595 4.01146 4.27545 3.91607 4.34578 3.84575C4.41611 3.77542 4.51149 3.73591 4.61095 3.73591C4.7104 3.73591 4.80578 3.77542 4.87611 3.84575L8.50003 7.46967L12.124 3.84575C12.1943 3.77542 12.2897 3.73591 12.3891 3.73591C12.4886 3.73591 12.584 3.77542 12.6543 3.84575Z" fill="white"/>
</g>
</svg>
