<svg width="50" height="62" viewBox="0 0 50 62" fill="none" xmlns="http://www.w3.org/2000/svg">
<path d="M5.34507 4.35503C4.81541 4.59043 4.21513 5.16717 3.89733 5.75569C3.65016 6.20296 3.63839 6.39128 3.60308 10.1695C3.57954 12.3353 3.59131 14.3833 3.63839 14.7128C3.74432 15.6309 4.32106 16.4784 5.10967 16.9256L5.75703 17.2905H7.73443H9.72361L10.0061 16.961C10.3474 16.5608 10.371 16.1724 10.0649 15.8075C9.85308 15.5368 9.75892 15.525 7.9463 15.4661C5.28622 15.3837 5.5334 15.8192 5.48632 11.0758C5.46278 8.9925 5.48632 7.10926 5.52163 6.8974C5.55694 6.68554 5.69818 6.40305 5.82766 6.27358C6.03952 6.06171 6.25138 6.04994 10.2297 6.04994C14.2552 6.04994 14.4199 6.06171 14.6436 6.28535C14.8672 6.50898 14.879 6.67377 14.879 10.6286C14.879 12.8885 14.8437 14.8305 14.8084 14.9365C14.6789 15.2543 14.1021 15.4661 13.3606 15.4661C12.7486 15.4661 12.6309 15.5015 12.419 15.7722C12.0894 16.1841 12.113 16.5608 12.4543 16.961C12.725 17.2788 12.7839 17.2905 13.7255 17.2788C14.4788 17.2788 14.8084 17.2199 15.185 17.0316C15.8088 16.702 16.4797 15.9487 16.6445 15.3837C16.7387 15.0777 16.7622 13.5123 16.7387 10.4402L16.7034 5.95578L16.3503 5.44966C16.1502 5.16717 15.7617 4.77876 15.4793 4.57866L14.9731 4.22556L10.371 4.20201C6.43971 4.17847 5.69818 4.20201 5.34507 4.35503Z" fill="#1E1E1E"/>
<path d="M21.4114 4.46111L21.1172 4.7436V10.7347V16.7257L21.4232 17.0082C21.7175 17.2789 21.7881 17.2907 23.8832 17.326L26.0489 17.3613L26.0842 19.4917C26.1313 22.293 25.8371 22.0576 29.3799 22.0576C30.8865 22.0576 32.1694 22.0105 32.2871 21.9399C32.652 21.7516 32.8168 21.1866 32.6285 20.81C32.3695 20.245 32.0635 20.1744 29.9213 20.1744H27.9439V18.0793C27.9439 15.278 28.144 15.4663 25.2015 15.4663H23.0004V10.1108V4.7436L22.7062 4.46111C22.5296 4.27279 22.2824 4.16685 22.0588 4.16685C21.8352 4.16685 21.588 4.27279 21.4114 4.46111Z" fill="#1E1E1E"/>
<path d="M29.1797 4.4611L28.8855 4.74359V7.63907V10.5228H27.1906C25.7075 10.5228 25.4603 10.5463 25.2249 10.7464C24.86 11.0407 24.8483 11.7233 25.2132 12.0882C25.4721 12.3354 25.5545 12.3472 27.8379 12.3472H30.2037L30.4862 12.0176L30.7687 11.688V8.21581V4.74359L30.4745 4.4611C30.2979 4.27278 30.0507 4.16685 29.8271 4.16685C29.6035 4.16685 29.3563 4.27278 29.1797 4.4611Z" fill="#1E1E1E"/>
<path d="M34.7942 4.41387C34.1821 4.7199 33.5583 5.42611 33.3817 6.03817C33.2876 6.34419 33.2405 7.87432 33.2405 10.8051C33.2405 15.5603 33.2522 15.6191 33.982 16.3842C34.1939 16.6078 34.5705 16.8903 34.8295 17.0316C35.2885 17.2787 35.4062 17.2905 39.773 17.2905C44.8106 17.2905 44.7165 17.3023 45.611 16.3724C46.2819 15.6898 46.3643 15.3249 46.3643 13.0179C46.3643 11.0052 46.3643 10.9699 46.0818 10.7463C45.7052 10.4402 45.1167 10.452 44.7989 10.7816C44.5752 11.0287 44.5517 11.2053 44.5164 12.9591C44.4693 15.6545 44.9283 15.3955 40.0319 15.4426C37.8897 15.4661 36.0065 15.4426 35.8535 15.4073C35.7122 15.372 35.4886 15.2425 35.3591 15.113C35.1355 14.8894 35.1237 14.7011 35.1237 10.7227V6.55606L35.3944 6.30888C35.6651 6.04994 35.724 6.04994 39.7965 6.04994C44.6576 6.04994 44.434 5.99108 44.5164 7.23873C44.5752 8.1215 44.8459 8.52169 45.3874 8.52169C46.176 8.52169 46.4938 7.98026 46.3878 6.86208C46.2937 6.04994 46.0112 5.42611 45.458 4.90822C44.6929 4.1667 44.6458 4.1667 39.7494 4.1667C35.4533 4.1667 35.2767 4.17847 34.7942 4.41387Z" fill="#1E1E1E"/>
<path d="M8.28759 8.20398C7.61669 8.63948 7.4166 9.13383 7.36951 10.405C7.31066 11.7704 7.47545 12.4413 7.98157 12.9474C8.48769 13.4535 9.15859 13.6183 10.5239 13.5594C11.7951 13.5124 12.2895 13.3123 12.725 12.6414C12.9722 12.2883 12.9957 12.1117 12.9957 10.711C12.9957 8.98082 12.8662 8.61594 12.1482 8.16867C11.8069 7.96857 11.548 7.93326 10.2179 7.93326C8.81725 7.93326 8.6407 7.9568 8.28759 8.20398ZM11.1125 10.7581V11.7115L10.2061 11.6762L9.28806 11.6409L9.25275 10.7228L9.21744 9.8165H10.1708H11.1125V10.7581Z" fill="#1E1E1E"/>
<path d="M37.8191 8.21563C37.1364 8.67467 37.007 9.0984 37.007 10.7933C37.007 12.1116 37.0305 12.2881 37.2777 12.6412C37.7014 13.2886 38.2075 13.5005 39.3963 13.5593C40.7852 13.6299 41.5738 13.4534 42.0564 12.9473C42.539 12.4529 42.6567 12.0056 42.6567 10.6403C42.6567 9.32203 42.3977 8.63936 41.7268 8.20386C41.3619 7.95668 41.1854 7.93314 39.7847 7.93314C38.337 7.93314 38.2075 7.95668 37.8191 8.21563ZM40.7499 10.7227L40.7146 11.6408L39.8083 11.6761L38.8902 11.7114V10.758V9.81638H39.8318H40.7852L40.7499 10.7227Z" fill="#1E1E1E"/>
<path d="M36.1006 20.2921C35.5709 20.5039 35.4179 21.4103 35.8298 21.8222C36.0535 22.0458 36.2183 22.0576 40.6674 22.0576C43.3863 22.0576 45.352 22.0105 45.4697 21.9399C45.8346 21.7516 45.9993 21.1866 45.811 20.81C45.5168 20.1861 45.4226 20.1744 40.7145 20.1861C38.3251 20.1861 36.2418 20.2332 36.1006 20.2921Z" fill="#1E1E1E"/>
<path d="M9.29982 21.3632C8.75839 21.787 8.92318 22.6344 9.59408 22.8698C10.3474 23.1288 11.0536 22.4108 10.7593 21.6928C10.5004 21.0807 9.85302 20.9277 9.29982 21.3632Z" fill="#1E1E1E"/>
<path d="M12.0541 21.2688C11.6068 21.4924 11.4067 21.9868 11.5833 22.4223C11.6656 22.6106 11.8304 22.8225 11.9481 22.8813C12.0658 22.9519 14.0079 22.999 16.6915 22.999H21.2231L21.4585 22.693C21.8704 22.1633 21.741 21.5631 21.1525 21.257C20.7758 21.0452 12.4543 21.0687 12.0541 21.2688Z" fill="#1E1E1E"/>
<path d="M4.92131 27.5071C4.68591 27.7072 4.60352 27.8955 4.60352 28.178C4.60352 28.637 5.07433 29.1196 5.53336 29.1196C6.3102 29.1196 6.71039 27.9661 6.09834 27.4836C5.68638 27.1658 5.3215 27.1775 4.92131 27.5071Z" fill="#1E1E1E"/>
<path d="M7.76965 27.4835C7.53424 27.6718 7.46362 27.8248 7.46362 28.1779C7.46362 28.531 7.53424 28.684 7.76965 28.8724C8.07568 29.1195 8.20515 29.1195 13.3017 29.1195H18.5277V30.5202C18.5277 31.709 18.563 31.9562 18.7513 32.1916C19.0455 32.5565 19.7282 32.5682 20.0931 32.2033C20.3403 31.9444 20.352 31.8502 20.352 29.8728V27.8013L20.0225 27.5188L19.6929 27.2363H13.8902C8.19338 27.2363 8.07568 27.2363 7.76965 27.4835Z" fill="#1E1E1E"/>
<path d="M24.5658 27.3543C24.1185 27.5426 24.0597 27.8486 24.0597 29.8849V31.8505L24.401 32.1919C24.5894 32.3802 24.8601 32.5332 25.0013 32.5332C25.1426 32.5332 25.4133 32.3802 25.6016 32.1919L25.9429 31.8505V29.8496C25.9429 28.1194 25.9194 27.8133 25.7428 27.6015C25.4957 27.319 24.9425 27.1895 24.5658 27.3543Z" fill="#1E1E1E"/>
<path d="M29.7683 27.5307C29.474 27.8132 29.474 27.8485 29.474 29.8495C29.4858 31.9799 29.5093 32.1211 30.0272 32.3918C30.4274 32.6037 30.6393 32.5566 31.0159 32.1917C31.3572 31.8504 31.3572 31.8269 31.3572 30.4851V29.1197H36.4773C40.0201 29.1197 41.6797 29.0844 41.8798 28.9902C42.3036 28.7901 42.4919 28.2722 42.3036 27.825C42.2212 27.6249 42.0564 27.413 41.9387 27.3542C41.8092 27.2835 39.4081 27.2365 35.8888 27.2365H30.0507L29.7683 27.5307Z" fill="#1E1E1E"/>
<path d="M43.8219 27.3541C43.4806 27.5542 43.3158 28.131 43.4806 28.5194C43.9043 29.5552 45.458 28.9902 45.1755 27.8956C45.046 27.3423 44.328 27.0599 43.8219 27.3541Z" fill="#1E1E1E"/>
<path d="M5.5451 32.8391C4.33276 33.2158 3.57947 34.4164 3.57947 35.9818C3.57947 36.5821 3.62655 36.7116 3.9208 37.0176C4.32099 37.4178 4.73295 37.4531 5.12137 37.1353C5.345 36.9587 5.40386 36.7704 5.47448 36.0171C5.59218 34.4988 5.27438 34.5929 10.2414 34.5929H14.4316L14.6553 34.8754C14.8671 35.1343 14.8789 35.3933 14.8789 39.2892V43.4441L14.6082 43.6913C14.3375 43.9503 14.2786 43.9503 10.265 43.9503C8.01685 43.9503 6.0983 43.9149 5.99237 43.8796C5.58041 43.7149 5.46271 43.197 5.46271 41.4785C5.46271 39.8778 5.45094 39.8071 5.16845 39.5364C4.80357 39.1598 4.39161 39.1598 3.96789 39.5246L3.63832 39.8071V41.7963C3.63832 43.9973 3.72071 44.3034 4.54463 45.092C5.30969 45.8217 5.35677 45.8335 10.1943 45.8335C14.5611 45.8335 14.5846 45.8335 15.1849 45.551C15.8676 45.2332 16.4326 44.6094 16.6327 43.962C16.7151 43.656 16.7621 42.0906 16.7621 39.1951C16.7621 34.4399 16.7504 34.381 16.0206 33.616C15.8088 33.3923 15.4321 33.1099 15.1732 32.9686C14.7141 32.7214 14.5611 32.7097 10.4062 32.6861C6.8516 32.6626 6.01591 32.6861 5.5451 32.8391Z" fill="#1E1E1E"/>
<path d="M44.7988 34.2163C44.5399 34.487 44.5399 34.5223 44.5399 39.2186V43.9385L40.4203 43.9738C36.3478 44.0091 36.3007 44.0091 36.0418 44.2681C35.6769 44.6329 35.6887 45.3156 36.0535 45.6099C36.3125 45.8217 36.6067 45.8335 41.0677 45.8335C45.5639 45.8335 45.8228 45.8217 46.0818 45.6099L46.3643 45.3862V39.8895V34.3928L46.0818 34.1692C45.7051 33.8632 45.1166 33.8749 44.7988 34.2163Z" fill="#1E1E1E"/>
<path d="M24.3187 35.558C24.2363 35.5933 24.0951 35.7698 24.0009 35.9464C23.8597 36.2289 23.8243 37.0292 23.8243 40.6427C23.8243 44.9859 23.8243 44.9977 24.0951 45.3037C24.4599 45.7392 25.0602 45.7392 25.4369 45.3155L25.7076 44.9977V41.1724V37.3588H28.6384C31.4161 37.3588 31.5809 37.347 31.8752 37.1116C32.1106 36.9233 32.1812 36.7703 32.1812 36.4172C32.1812 36.0641 32.1106 35.9111 31.8752 35.7227C31.5692 35.4873 31.4279 35.4756 28.0145 35.4873C26.0725 35.4873 24.4011 35.5227 24.3187 35.558Z" fill="#1E1E1E"/>
<path d="M8.7113 36.5351C8.22872 36.6881 7.60489 37.3355 7.46365 37.8298C7.4048 38.0535 7.34595 38.7479 7.34595 39.36C7.34595 40.6782 7.60489 41.3609 8.28757 41.8082C8.67599 42.0671 8.79369 42.0789 10.2885 42.0436C11.7127 42.0083 11.9128 41.9847 12.2424 41.7493C12.8662 41.302 12.9957 40.8665 12.9957 39.2069C12.9957 37.8887 12.9721 37.7121 12.7249 37.3472C12.5837 37.1236 12.2306 36.8294 11.9363 36.6763C11.4891 36.4527 11.2419 36.4174 10.2297 36.4292C9.58229 36.4292 8.89962 36.488 8.7113 36.5351ZM11.1124 39.2423V40.1839H10.1708H9.22919V39.3246C9.22919 38.8421 9.2645 38.4183 9.31158 38.383C9.34689 38.3359 9.77062 38.3006 10.2532 38.3006H11.1124V39.2423Z" fill="#1E1E1E"/>
<path d="M27.8733 39.713C27.5437 39.8425 27.2377 40.278 27.2377 40.6311C27.2377 40.7723 27.3671 41.0312 27.5319 41.1843L27.8144 41.4785H31.8045H35.7946L36.0418 41.2078C36.3008 40.9371 36.3714 40.5016 36.2301 40.1249C36.0418 39.6424 35.6652 39.5953 31.8045 39.607C29.78 39.607 28.0027 39.6541 27.8733 39.713Z" fill="#1E1E1E"/>
<path d="M37.7485 39.7718C36.8657 40.1485 37.1835 41.4785 38.1604 41.4785C38.7607 41.4785 39.0785 41.0548 39.0079 40.3603C38.949 39.8307 38.3252 39.5364 37.7485 39.7718Z" fill="#1E1E1E"/>
<path d="M7.51 56.03H12.48V56.65H7.51V56.03ZM7.33 57.74H12.69V58.38H7.33V57.74ZM10.66 56.22H11.33V60.61H10.66V56.22ZM8.6 56.25H9.26V58.08C9.26 58.2333 9.24 58.4233 9.2 58.65C9.16 58.87 9.09 59.1067 8.99 59.36C8.89667 59.6133 8.76 59.86 8.58 60.1C8.4 60.3467 8.17 60.5667 7.89 60.76C7.83667 60.6867 7.76 60.6033 7.66 60.51C7.56 60.4233 7.47 60.3533 7.39 60.3C7.72333 60.0933 7.97667 59.8533 8.15 59.58C8.32333 59.3 8.44 59.0267 8.5 58.76C8.56667 58.4867 8.6 58.2567 8.6 58.07V56.25ZM6.27 53.42H9.08V53.95H6.27V53.42ZM10.88 53.42H13.72V53.95H10.88V53.42ZM13.42 52.03H14.16V59.83C14.16 60.05 14.13 60.2233 14.07 60.35C14.0167 60.4833 13.9167 60.5833 13.77 60.65C13.6167 60.71 13.4133 60.7467 13.16 60.76C12.9067 60.78 12.5867 60.7867 12.2 60.78C12.1933 60.7133 12.1767 60.6333 12.15 60.54C12.13 60.4533 12.1033 60.3633 12.07 60.27C12.0367 60.1767 12.0033 60.0967 11.97 60.03C12.2433 60.0367 12.4967 60.04 12.73 60.04C12.97 60.04 13.1333 60.04 13.22 60.04C13.2933 60.0333 13.3433 60.0167 13.37 59.99C13.4033 59.9567 13.42 59.9 13.42 59.82V52.03ZM6.34 52.03H9.54V55.4H6.34V54.82H8.83V52.6H6.34V52.03ZM13.78 52.03V52.6H11.14V54.83H13.78V55.41H10.43V52.03H13.78ZM5.89 52.03H6.63V60.81H5.89V52.03ZM17.59 55.55V59.09H16.87V56.25H15.42V55.55H17.59ZM17.59 58.78C17.83 59.1533 18.1633 59.43 18.59 59.61C19.0167 59.7833 19.5233 59.8833 20.11 59.91C20.39 59.9167 20.7267 59.9233 21.12 59.93C21.52 59.93 21.94 59.93 22.38 59.93C22.82 59.9233 23.2433 59.9133 23.65 59.9C24.0633 59.8867 24.4233 59.87 24.73 59.85C24.7033 59.9033 24.6733 59.9733 24.64 60.06C24.6067 60.1467 24.5733 60.2367 24.54 60.33C24.5133 60.4233 24.4933 60.51 24.48 60.59C24.2 60.5967 23.87 60.6033 23.49 60.61C23.1167 60.6233 22.72 60.63 22.3 60.63C21.8867 60.6367 21.4867 60.6367 21.1 60.63C20.72 60.6233 20.39 60.6167 20.11 60.61C19.4633 60.5833 18.9067 60.4767 18.44 60.29C17.9733 60.1033 17.5833 59.81 17.27 59.41C17.0167 59.63 16.7567 59.8467 16.49 60.06C16.2233 60.28 15.9467 60.5 15.66 60.72L15.29 59.98C15.5367 59.82 15.8067 59.6367 16.1 59.43C16.3933 59.2167 16.6733 59 16.94 58.78H17.59ZM15.58 52.29L16.11 51.83C16.3233 51.9767 16.54 52.1467 16.76 52.34C16.9867 52.5267 17.1933 52.7167 17.38 52.91C17.5667 53.0967 17.7133 53.2767 17.82 53.45L17.25 53.97C17.15 53.7967 17.0067 53.6133 16.82 53.42C16.64 53.22 16.4433 53.0233 16.23 52.83C16.0167 52.63 15.8 52.45 15.58 52.29ZM19.59 53.28L20.06 52.85C20.38 52.9633 20.7167 53.0967 21.07 53.25C21.43 53.3967 21.7733 53.5467 22.1 53.7C22.4333 53.8533 22.71 53.9967 22.93 54.13L22.43 54.61C22.2233 54.4767 21.9567 54.33 21.63 54.17C21.31 54.01 20.97 53.8533 20.61 53.7C20.25 53.54 19.91 53.4 19.59 53.28ZM18.63 54.11H23.8V54.69H19.34V59.29H18.63V54.11ZM23.45 54.11H24.17V58.54C24.17 58.7267 24.1467 58.87 24.1 58.97C24.0533 59.0633 23.9633 59.14 23.83 59.2C23.6967 59.2533 23.52 59.2867 23.3 59.3C23.0867 59.3067 22.81 59.31 22.47 59.31C22.4567 59.2167 22.43 59.1133 22.39 59C22.35 58.88 22.3067 58.78 22.26 58.7C22.5 58.7067 22.7133 58.71 22.9 58.71C23.0933 58.71 23.22 58.71 23.28 58.71C23.3467 58.7033 23.39 58.6867 23.41 58.66C23.4367 58.6333 23.45 58.5933 23.45 58.54V54.11ZM18.64 52.01H23.63V52.61H18.64V52.01ZM19.02 55.57H23.73V56.13H19.02V55.57ZM19.02 57.04H23.73V57.63H19.02V57.04ZM21.03 54.35H21.71V59.25H21.03V54.35ZM23.38 52.01H23.55L23.7 51.97L24.17 52.34C23.9433 52.5467 23.6867 52.7533 23.4 52.96C23.1133 53.16 22.8133 53.3467 22.5 53.52C22.1867 53.6933 21.8767 53.8433 21.57 53.97C21.5233 53.9033 21.46 53.8267 21.38 53.74C21.3 53.6533 21.23 53.5833 21.17 53.53C21.45 53.4167 21.73 53.2833 22.01 53.13C22.29 52.9767 22.55 52.8167 22.79 52.65C23.03 52.4767 23.2267 52.31 23.38 52.15V52.01ZM26.62 54.88H34.52V55.5H26.62V54.88ZM26.1 52.43H34.02V53.04H26.1V52.43ZM28.43 56.53H33.87V57.14H28.43V56.53ZM28.21 58.15H33.63V58.76H28.21V58.15ZM27.31 59.96H34.44V60.59H27.31V59.96ZM29.61 51.61H30.36V52.86H29.61V51.61ZM30.49 55.72H31.22V60.22H30.49V55.72ZM26.24 54.88H26.97V56.5C26.97 56.8133 26.9567 57.16 26.93 57.54C26.9033 57.9133 26.85 58.2967 26.77 58.69C26.6967 59.0833 26.59 59.47 26.45 59.85C26.3167 60.2233 26.1367 60.5667 25.91 60.88C25.8767 60.8333 25.8233 60.7767 25.75 60.71C25.6767 60.65 25.6 60.59 25.52 60.53C25.4467 60.4767 25.38 60.4367 25.32 60.41C25.5933 60.0167 25.7933 59.59 25.92 59.13C26.0533 58.6633 26.14 58.2033 26.18 57.75C26.22 57.29 26.24 56.87 26.24 56.49V54.88ZM28.54 55.69L29.2 55.85C29.0467 56.2767 28.85 56.6867 28.61 57.08C28.37 57.4733 28.1167 57.8067 27.85 58.08C27.81 58.04 27.7533 57.9967 27.68 57.95C27.6067 57.8967 27.5333 57.8467 27.46 57.8C27.3933 57.7533 27.33 57.7133 27.27 57.68C27.5367 57.4333 27.78 57.1367 28 56.79C28.22 56.4367 28.4 56.07 28.54 55.69ZM27.59 53.4L28.07 53C28.4633 53.0933 28.8767 53.2033 29.31 53.33C29.7433 53.4567 30.17 53.59 30.59 53.73C31.0167 53.87 31.42 54.01 31.8 54.15C32.18 54.2833 32.51 54.41 32.79 54.53L32.32 54.96C32.0467 54.84 31.7233 54.71 31.35 54.57C30.9767 54.4233 30.5767 54.28 30.15 54.14C29.7233 53.9933 29.29 53.8567 28.85 53.73C28.4167 53.6033 27.9967 53.4933 27.59 53.4ZM31.91 52.85L32.45 53.14C32.1567 53.3467 31.8133 53.5433 31.42 53.73C31.0267 53.91 30.6033 54.0767 30.15 54.23C29.7033 54.3833 29.2467 54.52 28.78 54.64C28.32 54.76 27.87 54.86 27.43 54.94C27.4033 54.8733 27.36 54.7933 27.3 54.7C27.24 54.6 27.1867 54.52 27.14 54.46C27.5533 54.3867 27.9867 54.2967 28.44 54.19C28.9 54.0767 29.3467 53.9533 29.78 53.82C30.22 53.68 30.6233 53.53 30.99 53.37C31.3633 53.2033 31.67 53.03 31.91 52.85ZM38.02 52.74V54.64H42.01V52.74H38.02ZM37.29 52.03H42.78V55.36H37.29V52.03ZM35.83 56.43H39.39V60.71H38.64V57.14H36.55V60.8H35.83V56.43ZM40.49 56.43H44.25V60.74H43.49V57.14H41.21V60.8H40.49V56.43ZM36.16 59.53H38.95V60.26H36.16V59.53ZM40.85 59.53H43.82V60.26H40.85V59.53Z" fill="black"/>
</svg>
