<svg width="60" height="61" viewBox="0 0 60 61" fill="none" xmlns="http://www.w3.org/2000/svg">
<path d="M6.41409 5.44816C5.7785 5.73065 5.05816 6.42274 4.6768 7.12896C4.38019 7.66568 4.36607 7.89167 4.32369 12.4256C4.29545 15.0244 4.30957 17.4821 4.36607 17.8775C4.49319 18.9792 5.18528 19.9962 6.1316 20.5329L6.90844 20.9708H9.28132H11.6683L12.0073 20.5753C12.4169 20.0951 12.4452 19.629 12.0779 19.1911C11.8237 18.8662 11.7107 18.8521 9.53556 18.7815C6.34347 18.6826 6.64008 19.2052 6.58358 13.5131C6.55533 11.0131 6.58358 8.75325 6.62595 8.49901C6.66833 8.24477 6.83782 7.90579 6.99319 7.75042C7.24742 7.49619 7.50166 7.48206 12.2757 7.48206C17.1062 7.48206 17.3039 7.49619 17.5723 7.76455C17.8406 8.03291 17.8548 8.23065 17.8548 12.9764C17.8548 15.6883 17.8124 18.0188 17.77 18.1459C17.6147 18.5273 16.9226 18.7815 16.0327 18.7815C15.2983 18.7815 15.157 18.8239 14.9028 19.1487C14.5073 19.6431 14.5356 20.0951 14.9452 20.5753C15.27 20.9566 15.3406 20.9708 16.4706 20.9566C17.3745 20.9566 17.77 20.886 18.222 20.66C18.9706 20.2645 19.7757 19.3606 19.9734 18.6826C20.0864 18.3154 20.1147 16.4369 20.0864 12.7504L20.044 7.36907L19.6203 6.76172C19.3802 6.42274 18.9141 5.95664 18.5751 5.71653L17.9678 5.2928L12.4452 5.26455C7.72765 5.2363 6.83782 5.26455 6.41409 5.44816Z" fill="black"/>
<path d="M25.6937 5.57526L25.3406 5.91425V13.1035V20.2928L25.7078 20.6318C26.0609 20.9566 26.1457 20.9707 28.6598 21.0131L31.2587 21.0555L31.301 23.612C31.3575 26.9736 31.0044 26.6911 35.2558 26.6911C37.0637 26.6911 38.6033 26.6346 38.7445 26.5498C39.1824 26.3239 39.3801 25.6459 39.1541 25.1939C38.8434 24.5159 38.4762 24.4312 35.9055 24.4312H33.5327V21.9171C33.5327 18.5555 33.7728 18.7815 30.2417 18.7815H27.6005V12.3549V5.91425L27.2474 5.57526C27.0355 5.34927 26.7389 5.22215 26.4705 5.22215C26.2022 5.22215 25.9055 5.34927 25.6937 5.57526Z" fill="black"/>
<path d="M35.0156 5.57527L34.6625 5.91425V9.38883V12.8493H32.6286C30.849 12.8493 30.5523 12.8775 30.2699 13.1176C29.832 13.4707 29.8179 14.29 30.2557 14.7278C30.5665 15.0244 30.6653 15.0385 33.4055 15.0385H36.2444L36.5834 14.6431L36.9224 14.2476V10.0809V5.91425L36.5693 5.57527C36.3574 5.34928 36.0608 5.22216 35.7925 5.22216C35.5241 5.22216 35.2275 5.34928 35.0156 5.57527Z" fill="black"/>
<path d="M41.7531 5.51878C41.0186 5.88601 40.27 6.73347 40.0582 7.46793C39.9452 7.83516 39.8887 9.67132 39.8887 13.1883C39.8887 18.8945 39.9028 18.9651 40.7785 19.8832C41.0327 20.1515 41.4847 20.4905 41.7955 20.66C42.3463 20.9566 42.4875 20.9708 47.7277 20.9708C53.7729 20.9708 53.6599 20.9849 54.7333 19.8691C55.5384 19.0499 55.6373 18.612 55.6373 15.8436C55.6373 13.4284 55.6373 13.386 55.2983 13.1176C54.8463 12.7504 54.1401 12.7645 53.7587 13.16C53.4904 13.4566 53.4621 13.6685 53.4197 15.773C53.3632 19.0075 53.9141 18.6967 48.0384 18.7532C45.4678 18.7815 43.2079 18.7532 43.0243 18.7109C42.8548 18.6685 42.5864 18.5131 42.431 18.3578C42.1627 18.0894 42.1486 17.8634 42.1486 13.0894V8.0894L42.4734 7.79279C42.7983 7.48205 42.8689 7.48205 47.7559 7.48205C53.5892 7.48205 53.3209 7.41143 53.4197 8.90861C53.4904 9.96793 53.8152 10.4482 54.4649 10.4482C55.4113 10.4482 55.7926 9.79844 55.6655 8.45663C55.5525 7.48205 55.2135 6.73347 54.5497 6.112C53.6316 5.22217 53.5751 5.22217 47.6994 5.22217C42.544 5.22217 42.3322 5.23629 41.7531 5.51878Z" fill="black"/>
<path d="M9.94516 10.0668C9.14008 10.5894 8.89996 11.1826 8.84347 12.708C8.77284 14.3465 8.97058 15.1515 9.57793 15.7589C10.1853 16.3662 10.9904 16.564 12.6288 16.4934C14.1542 16.4369 14.7474 16.1967 15.27 15.3917C15.5666 14.9679 15.5949 14.7561 15.5949 13.0753C15.5949 10.999 15.4395 10.5612 14.5779 10.0244C14.1683 9.78432 13.8576 9.74194 12.2615 9.74194C10.5808 9.74194 10.3689 9.77019 9.94516 10.0668ZM13.335 13.1318V14.2758L12.2474 14.2335L11.1457 14.1911L11.1034 13.0894L11.061 12.0018H12.205H13.335V13.1318Z" fill="black"/>
<path d="M45.383 10.0809C44.5638 10.6318 44.4084 11.1402 44.4084 13.1741C44.4084 14.7561 44.4367 14.9679 44.7333 15.3917C45.2418 16.1685 45.8491 16.4227 47.2757 16.4933C48.9423 16.5781 49.8887 16.3662 50.4678 15.7589C51.0469 15.1657 51.1881 14.6289 51.1881 12.9905C51.1881 11.4086 50.8774 10.5894 50.0723 10.0668C49.6344 9.77019 49.4226 9.74194 47.7418 9.74194C46.0045 9.74194 45.8491 9.77019 45.383 10.0809ZM48.9 13.0894L48.8576 14.1911L47.77 14.2335L46.6683 14.2758V13.1318V12.0018H47.7983H48.9423L48.9 13.0894Z" fill="black"/>
<path d="M43.3207 24.5725C42.6851 24.8267 42.5015 25.9143 42.9958 26.4086C43.2642 26.677 43.4619 26.6911 48.8009 26.6911C52.0636 26.6911 54.4224 26.6346 54.5636 26.5499C55.0015 26.3239 55.1992 25.6459 54.9732 25.1939C54.6201 24.4453 54.5071 24.4312 48.8574 24.4453C45.9902 24.4453 43.4902 24.5018 43.3207 24.5725Z" fill="black"/>
<path d="M5.00159 25.7448C4.253 26.1261 4.18238 27.3126 4.86035 27.6798C5.00159 27.7645 6.07504 27.821 7.23323 27.821C9.23888 27.821 9.33775 27.8069 9.63436 27.4962C10.157 26.9453 10.0298 26.112 9.366 25.773C8.8434 25.4905 5.52419 25.4764 5.00159 25.7448Z" fill="black"/>
<path d="M11.1598 25.8577C10.5101 26.3662 10.7079 27.3832 11.5129 27.6657C12.4169 27.9764 13.2644 27.1148 12.9112 26.2532C12.6005 25.5188 11.8237 25.3351 11.1598 25.8577Z" fill="black"/>
<path d="M14.4648 25.7448C13.9281 26.0131 13.688 26.6064 13.8999 27.129C13.9987 27.3549 14.1965 27.6092 14.3377 27.6798C14.479 27.7645 16.8095 27.821 20.0298 27.821H25.4677L25.7501 27.4538C26.2445 26.8182 26.0891 26.0979 25.3829 25.7306C24.9309 25.4764 14.9451 25.5047 14.4648 25.7448Z" fill="black"/>
<path d="M5.90553 33.2307C5.62304 33.4708 5.52417 33.6968 5.52417 34.0357C5.52417 34.5866 6.08914 35.1657 6.63999 35.1657C7.57219 35.1657 8.05242 33.7815 7.31796 33.2024C6.82361 32.821 6.38575 32.8352 5.90553 33.2307Z" fill="black"/>
<path d="M9.32377 33.2024C9.04129 33.4284 8.95654 33.612 8.95654 34.0357C8.95654 34.4595 9.04129 34.6431 9.32377 34.8691C9.69101 35.1657 9.84637 35.1657 15.9622 35.1657H22.2334V36.8465C22.2334 38.273 22.2758 38.5696 22.5017 38.8521C22.8548 39.29 23.6741 39.3041 24.1119 38.8662C24.4085 38.5555 24.4226 38.4425 24.4226 36.0696V33.5838L24.0272 33.2448L23.6317 32.9058H16.6684C9.83225 32.9058 9.69101 32.9058 9.32377 33.2024Z" fill="black"/>
<path d="M29.4789 33.047C28.9422 33.273 28.8716 33.6403 28.8716 36.0838V38.4425L29.2812 38.8521C29.5072 39.0781 29.832 39.2617 30.0015 39.2617C30.171 39.2617 30.4959 39.0781 30.7219 38.8521L31.1315 38.4425V36.0414C31.1315 33.9651 31.1032 33.5979 30.8914 33.3436C30.5947 33.0047 29.9309 32.8493 29.4789 33.047Z" fill="black"/>
<path d="M35.722 33.2589C35.3689 33.5979 35.3689 33.6403 35.3689 36.0414C35.383 38.5979 35.4113 38.7674 36.0327 39.0922C36.513 39.3465 36.7672 39.29 37.2192 38.8521C37.6288 38.4425 37.6288 38.4143 37.6288 36.8041V35.1657H43.7729C48.0243 35.1657 50.0158 35.1233 50.2559 35.0103C50.7644 34.7702 50.9904 34.1487 50.7644 33.612C50.6655 33.3719 50.4678 33.1177 50.3265 33.047C50.1712 32.9623 47.2898 32.9058 43.0666 32.9058H36.061L35.722 33.2589Z" fill="black"/>
<path d="M52.5863 33.0471C52.1767 33.2872 51.9789 33.9793 52.1767 34.4454C52.6851 35.6883 54.5495 35.0103 54.2106 33.6968C54.0552 33.0329 53.1936 32.694 52.5863 33.0471Z" fill="black"/>
<path d="M6.65417 39.6289C5.19936 40.0809 4.29541 41.5216 4.29541 43.4001C4.29541 44.1205 4.35191 44.2758 4.70501 44.6431C5.18524 45.1233 5.67959 45.1657 6.14569 44.7843C6.41405 44.5725 6.48468 44.3465 6.56942 43.4425C6.71066 41.6205 6.32931 41.7335 12.2898 41.7335H17.318L17.5864 42.0725C17.8406 42.3832 17.8547 42.6939 17.8547 47.3691V52.3549L17.5299 52.6515C17.205 52.9623 17.1344 52.9623 12.318 52.9623C9.62027 52.9623 7.31801 52.9199 7.19089 52.8775C6.69654 52.6798 6.5553 52.0583 6.5553 49.9962C6.5553 48.0753 6.54117 47.9905 6.20219 47.6657C5.76434 47.2137 5.26999 47.2137 4.76151 47.6515L4.36603 47.9905V50.3775C4.36603 53.0188 4.4649 53.386 5.4536 54.3323C6.37168 55.208 6.42818 55.2222 12.2333 55.2222C17.4734 55.2222 17.5016 55.2222 18.222 54.8832C19.0412 54.5018 19.7191 53.7532 19.9593 52.9764C20.0581 52.6092 20.1146 50.7306 20.1146 47.2561C20.1146 41.5499 20.1005 41.4792 19.2248 40.5612C18.9706 40.2928 18.5186 39.9538 18.2078 39.7843C17.657 39.4877 17.4734 39.4736 12.4875 39.4453C8.22196 39.4171 7.21914 39.4453 6.65417 39.6289Z" fill="black"/>
<path d="M53.7586 41.2815C53.4479 41.6063 53.4479 41.6487 53.4479 47.2843V52.9482L48.5044 52.9905C43.6174 53.0329 43.5609 53.0329 43.2501 53.3436C42.8123 53.7815 42.8264 54.6007 43.2642 54.9538C43.575 55.208 43.9281 55.2222 49.2812 55.2222C54.6767 55.2222 54.9874 55.208 55.2981 54.9538L55.6371 54.6854V48.0894V41.4934L55.2981 41.225C54.8462 40.8578 54.14 40.8719 53.7586 41.2815Z" fill="black"/>
<path d="M29.1823 42.8917C29.0835 42.9341 28.914 43.1459 28.801 43.3578C28.6315 43.6968 28.5891 44.6572 28.5891 48.9934C28.5891 54.2053 28.5891 54.2194 28.914 54.5866C29.3518 55.1092 30.0722 55.1092 30.5241 54.6007L30.849 54.2194V49.629V45.0527H34.3659C37.6993 45.0527 37.897 45.0386 38.2501 44.7561C38.5326 44.5301 38.6174 44.3465 38.6174 43.9228C38.6174 43.499 38.5326 43.3154 38.2501 43.0894C37.8829 42.807 37.7134 42.7928 33.6174 42.807C31.2869 42.807 29.2812 42.8493 29.1823 42.8917Z" fill="black"/>
<path d="M10.4536 44.064C9.87451 44.2476 9.12592 45.0244 8.95643 45.6177C8.88581 45.886 8.81519 46.7193 8.81519 47.4538C8.81519 49.0357 9.12592 49.8549 9.94513 50.3917C10.4112 50.7024 10.5525 50.7165 12.3463 50.6741C14.0553 50.6318 14.2954 50.6035 14.6909 50.321C15.4395 49.7843 15.5948 49.2617 15.5948 47.2702C15.5948 45.6883 15.5666 45.4764 15.27 45.0386C15.1005 44.7702 14.6768 44.4171 14.3237 44.2335C13.7869 43.9651 13.4903 43.9227 12.2756 43.9369C11.4988 43.9369 10.6796 44.0075 10.4536 44.064ZM13.335 47.3126V48.4425H12.205H11.0751V47.4114C11.0751 46.8323 11.1174 46.3239 11.1739 46.2815C11.2163 46.225 11.7248 46.1826 12.3039 46.1826H13.335V47.3126Z" fill="black"/>
<path d="M33.448 47.8775C33.0525 48.0329 32.6853 48.5555 32.6853 48.9792C32.6853 49.1487 32.8407 49.4595 33.0384 49.6431L33.3774 49.9962H38.1655H42.9537L43.2503 49.6713C43.561 49.3465 43.6458 48.8239 43.4763 48.3719C43.2503 47.7928 42.7983 47.7363 38.1655 47.7504C35.7361 47.7504 33.6034 47.8069 33.448 47.8775Z" fill="black"/>
<path d="M45.2983 47.9482C44.239 48.4001 44.6204 49.9962 45.7927 49.9962C46.513 49.9962 46.8944 49.4877 46.8096 48.6544C46.739 48.0188 45.9904 47.6657 45.2983 47.9482Z" fill="black"/>
</svg>
