<svg width="60" height="61" viewBox="0 0 60 61" fill="none" xmlns="http://www.w3.org/2000/svg">
<path d="M8.06639 6.08205C7.75156 6.16601 7.3003 6.34441 7.06943 6.49133C6.49224 6.82715 5.69466 7.69818 5.41131 8.29636C5.18044 8.80009 5.18044 8.86306 5.14895 14.6769C5.13846 17.9092 5.14895 20.6587 5.18044 20.7847C5.2539 21.11 5.79961 21.3724 6.1879 21.2884C6.87003 21.1415 6.84904 21.2779 6.91201 14.8868L6.96448 9.10443L7.24783 8.67416C7.42624 8.40131 7.72008 8.14944 8.07689 7.97104L8.63309 7.69818H14.6988H20.7751L21.0269 7.43583C21.3943 7.07902 21.3733 6.61726 20.985 6.21848L20.6806 5.91414L14.6569 5.92464C9.71401 5.92464 8.53864 5.95612 8.06639 6.08205Z" fill="black"/>
<path d="M39.6016 6.04004C39.0664 6.35487 38.9614 7.01601 39.3917 7.43579L39.6435 7.69815H45.3945C49.0885 7.69815 51.2923 7.74013 51.5442 7.81359C52.0584 7.95001 52.6461 8.47473 52.8874 9.00995C53.0659 9.39824 53.0868 9.839 53.0868 15.0757V20.7322L53.3912 21.0365C53.79 21.4353 54.1678 21.4353 54.5666 21.0365L54.8709 20.7322V15.1282C54.8709 8.85253 54.8604 8.7266 54.1573 7.69815C53.7165 7.0475 53.0134 6.4808 52.2788 6.17646C51.796 5.97707 51.4602 5.96658 45.7933 5.94559C41.3646 5.9246 39.759 5.94559 39.6016 6.04004Z" fill="black"/>
<path d="M4.23573 30.2086C3.74249 30.6914 3.97337 31.5204 4.62402 31.6778C4.76045 31.7093 16.2623 31.7198 30.1883 31.7093L55.5218 31.6778L55.7736 31.384C56.1094 30.9852 56.0989 30.6284 55.7211 30.2506L55.4168 29.9463H29.947H4.4876L4.23573 30.2086Z" fill="black"/>
<path d="M53.3495 41.1228L53.0871 41.3746V46.7163C53.0871 50.4313 53.0557 52.1628 52.9717 52.4147C52.7828 52.9499 52.3945 53.4327 51.9013 53.695C51.4605 53.9259 51.4395 53.9259 45.5312 53.9574C39.6543 53.9889 39.6019 53.9889 39.371 54.2093C39.0352 54.5241 39.0457 55.1223 39.371 55.4371L39.6229 55.668L45.804 55.6365L51.9852 55.605L52.5834 55.3217C53.3705 54.9544 54.0736 54.2302 54.4829 53.3697L54.8187 52.6666L54.8502 47.2095C54.8712 44.2081 54.8502 41.6475 54.8187 41.5215C54.6613 40.8709 53.8217 40.64 53.3495 41.1228Z" fill="black"/>
<path d="M5.70478 41.4796C5.58934 41.532 5.41094 41.6685 5.30599 41.7734C5.13808 41.9728 5.12759 42.3401 5.14858 47.3774L5.18006 52.7715L5.46341 53.3697C5.83071 54.1673 6.46038 54.8179 7.24745 55.2482L7.9086 55.605L14.3417 55.6365L20.7642 55.668L21.0266 55.4056C21.3729 55.0593 21.3729 54.5766 21.0266 54.2407L20.7747 53.9784H14.9503C11.0884 53.9784 8.94754 53.9364 8.58024 53.8629C8.22343 53.7895 7.9086 53.6216 7.64624 53.3907C6.89065 52.7086 6.91163 52.8975 6.91163 47.3354C6.91163 43.8933 6.88015 42.2562 6.7962 42.0148C6.71224 41.7839 6.56532 41.6265 6.32395 41.532C6.13505 41.4481 5.95665 41.3851 5.94615 41.3956C5.92516 41.3956 5.82022 41.4376 5.70478 41.4796Z" fill="black"/>
</svg>
