<svg width="120" height="120" viewBox="0 0 120 120" fill="none" xmlns="http://www.w3.org/2000/svg">
<path d="M50.566 43.0189C50.566 47.7081 46.7647 51.5094 42.0755 51.5094C37.3863 51.5094 33.5849 47.7081 33.5849 43.0189C33.5849 38.3297 37.3863 34.5283 42.0755 34.5283C46.7647 34.5283 50.566 38.3297 50.566 43.0189Z" fill="#74BC1F"/>
<path d="M85.4717 76.9811C85.4717 81.6703 81.6703 85.4717 76.9811 85.4717C72.2919 85.4717 68.4906 81.6703 68.4906 76.9811C68.4906 72.2919 72.2919 68.4906 76.9811 68.4906C81.6703 68.4906 85.4717 72.2919 85.4717 76.9811Z" fill="#74BC1F"/>
<path d="M85.4717 43.0189C85.4717 47.7081 81.6703 51.5094 76.9811 51.5094C72.2919 51.5094 68.4906 47.7081 68.4906 43.0189C68.4906 38.3297 72.2919 34.5283 76.9811 34.5283C81.6703 34.5283 85.4717 38.3297 85.4717 43.0189Z" fill="#BBBCBC"/>
<path d="M51.5094 76.0377C51.5094 80.7269 47.7081 84.5283 43.0189 84.5283C38.3297 84.5283 34.5283 80.7269 34.5283 76.0377C34.5283 71.3485 38.3297 67.5472 43.0189 67.5472C47.7081 67.5472 51.5094 71.3485 51.5094 76.0377Z" fill="#BBBCBC"/>
<path fill-rule="evenodd" clip-rule="evenodd" d="M62.8302 38.3901C62.8302 37.0597 63.7724 35.9387 65.0036 35.4344C69.817 33.4625 73.2075 28.731 73.2075 23.2075C73.2075 15.9132 67.2943 10 60 10C52.7057 10 46.7925 15.9132 46.7925 23.2075C46.7925 28.731 50.183 33.4625 54.9964 35.4344C56.2276 35.9387 57.1698 37.0597 57.1698 38.3901V44.8174C57.1698 46.1479 56.2276 47.2688 54.9964 47.7732C51.7263 49.1128 49.1128 51.7262 47.7732 54.9964C47.2688 56.2276 46.1479 57.1698 44.8174 57.1698H38.3901C37.0597 57.1698 35.9387 56.2276 35.4344 54.9964C33.4625 50.183 28.731 46.7925 23.2075 46.7925C15.9132 46.7925 10 52.7057 10 60C10 67.2943 15.9132 73.2075 23.2075 73.2075C28.731 73.2075 33.4625 69.817 35.4344 65.0036C35.9387 63.7724 37.0597 62.8302 38.3901 62.8302H44.8174C46.1479 62.8302 47.2688 63.7724 47.7732 65.0036C49.1128 68.2738 51.7263 70.8872 54.9964 72.2268C56.2275 72.7312 57.1698 73.8521 57.1698 75.1826V81.6099C57.1698 82.9403 56.2276 84.0613 54.9964 84.5656C50.183 86.5375 46.7925 91.269 46.7925 96.7924C46.7925 104.087 52.7057 110 60 110C67.2943 110 73.2075 104.087 73.2075 96.7924C73.2075 91.269 69.817 86.5375 65.0036 84.5656C63.7724 84.0613 62.8302 82.9403 62.8302 81.6099V75.1826C62.8302 73.8521 63.7724 72.7312 65.0036 72.2268C68.2737 70.8872 70.8872 68.2738 72.2268 65.0036C72.7312 63.7724 73.8521 62.8302 75.1826 62.8302H81.6099C82.9403 62.8302 84.0613 63.7724 84.5656 65.0036C86.5375 69.817 91.269 73.2075 96.7924 73.2075C104.087 73.2075 110 67.2943 110 60C110 52.7057 104.087 46.7925 96.7924 46.7925C91.269 46.7925 86.5375 50.183 84.5656 54.9964C84.0613 56.2276 82.9403 57.1698 81.6099 57.1698H75.1826C73.8521 57.1698 72.7312 56.2276 72.2268 54.9964C70.8872 51.7262 68.2737 49.1128 65.0036 47.7732C63.7725 47.2688 62.8302 46.1479 62.8302 44.8174V38.3901ZM60 30.7547C64.1682 30.7547 67.5472 27.3757 67.5472 23.2075C67.5472 19.0394 64.1682 15.6604 60 15.6604C55.8318 15.6604 52.4528 19.0394 52.4528 23.2075C52.4528 27.3757 55.8318 30.7547 60 30.7547ZM30.7547 60C30.7547 64.1682 27.3757 67.5472 23.2075 67.5472C19.0394 67.5472 15.6604 64.1682 15.6604 60C15.6604 55.8318 19.0394 52.4528 23.2075 52.4528C27.3757 52.4528 30.7547 55.8318 30.7547 60ZM60 67.5472C64.1682 67.5472 67.5472 64.1682 67.5472 60C67.5472 55.8318 64.1682 52.4528 60 52.4528C55.8318 52.4528 52.4528 55.8318 52.4528 60C52.4528 64.1682 55.8318 67.5472 60 67.5472ZM67.5472 96.7924C67.5472 100.961 64.1682 104.34 60 104.34C55.8318 104.34 52.4528 100.961 52.4528 96.7924C52.4528 92.6243 55.8318 89.2453 60 89.2453C64.1682 89.2453 67.5472 92.6243 67.5472 96.7924ZM96.7924 67.5472C100.961 67.5472 104.34 64.1682 104.34 60C104.34 55.8318 100.961 52.4528 96.7924 52.4528C92.6243 52.4528 89.2453 55.8318 89.2453 60C89.2453 64.1682 92.6243 67.5472 96.7924 67.5472Z" fill="#74BC1F"/>
</svg>
