<svg width="76" height="71" viewBox="0 0 76 71" fill="none" xmlns="http://www.w3.org/2000/svg">
<g clip-path="url(#clip0_469_10454)">
<path d="M37.5 68.2222V111.422H75L67.9 78.1222C67 74.5222 64.7 71.4222 61.5 69.4222L50.1 62.5222L37.5 68.1222V68.2222Z" fill="#94D646"/>
<path d="M0 111.422L7.1 78.1222C8 74.5222 10.3 71.4222 13.5 69.4222L22.4 64.0222L24.8 62.5222L27.2 63.6222L33.7 66.5222V65.3222H42.1V66.9222C43.9 65.5222 45.7 63.5222 46.5 60.6222C46.5 60.6222 48.8 62.2222 50 63.8222C50 63.8222 50 71.2222 42 77.1222C42 77.1222 42.9 73.0222 37.3 70.3222V111.422H0Z" fill="#74BC1F"/>
<path d="M27.5 48.8222H47.7V60.7222C47.7 60.7222 45 68.2222 37.6 68.2222C30.2 68.2222 27.5 60.7222 27.5 60.7222V48.8222Z" fill="#FCC4A1"/>
<g style="mix-blend-mode:multiply" opacity="0.3">
<path d="M47.6 53.8222C44.2 56.7222 40 59.6222 37.5 59.6222C35 59.6222 30.8 56.8222 27.5 53.9222V48.9222H47.7V53.8222H47.6Z" fill="#FCC4A1"/>
</g>
<path d="M54.3 32.5222C54.3 32.5222 55.6 27.9222 57.3 29.2222C59.1 30.5222 55.8 37.8222 55.8 39.7222C55.8 41.6222 54 42.5222 53.3 41.2222L54.3 32.5222Z" fill="#FCC4A1"/>
<path d="M20.7001 32.5222C20.7001 32.5222 19.4001 27.9222 17.7001 29.2222C15.9001 30.5222 19.2001 37.8222 19.2001 39.7222C19.2001 41.6222 21.0001 42.5222 21.7001 41.2222L20.7001 32.5222Z" fill="#FCC4A1"/>
<path d="M37.4999 5.22217C58.6999 5.22217 54.9999 31.1222 54.9999 31.1222L53.3999 44.4222C53.3999 45.4222 52.8999 46.4222 52.1999 47.1222C49.1999 50.2222 41.4999 57.1222 37.4999 57.1222C33.4999 57.1222 25.7999 50.2222 22.7999 47.1222C22.0999 46.4222 21.6999 45.4222 21.5999 44.4222L19.9999 31.1222C19.9999 31.1222 16.2999 5.22217 37.4999 5.22217Z" fill="#FCC4A1"/>
<path d="M54.4 36.0222H52.3V25.4222C52.3 25.4222 48 24.1222 46.8 17.8222C46.8 17.8222 40.8 26.6222 22.6 26.6222V36.0222H20.6L19.1 26.9222C19.1 26.9222 15.5 4.52219 37.5 4.52219C59.5 4.52219 55.9 26.4222 55.9 26.4222L54.3 36.0222H54.4Z" fill="#6B4427"/>
<path d="M51.8001 8.72217C55.2001 9.42217 59.2001 11.8222 57.4001 26.3222C57.4001 26.3222 53.1001 26.6222 50.7001 23.5222C48.3001 20.4222 47.0001 16.2222 47.0001 16.2222C47.0001 16.2222 39.9001 26.3222 17.3001 26.9222C17.3001 26.9222 13.9001 0.322174 36.5001 0.322174C59.1001 0.322174 51.8001 6.12217 52.0001 8.82217L51.8001 8.72217Z" fill="#6B4427"/>
<path d="M37.5 68.2222C37.5 68.2222 29.6 66.6222 27.4 59.5222C27.4 59.5222 25.1 61.1222 24 62.6222C24 62.6222 24 69.7222 31.8 75.3222C31.8 75.3222 30.8 70.8222 37.5 68.2222Z" fill="#E6E6E6"/>
<path d="M37.5 68.2222C37.5 68.2222 45.4 66.6222 47.6 59.5222C47.6 59.5222 49.9 61.1222 51 62.6222C51 62.6222 51 69.7222 43.2 75.3222C43.2 75.3222 44.2 70.8222 37.5 68.2222Z" fill="#F2F2F2"/>
<path d="M64.3 11.5222C64.3552 11.5222 64.4 11.4774 64.4 11.4222C64.4 11.3669 64.3552 11.3222 64.3 11.3222C64.2447 11.3222 64.2 11.3669 64.2 11.4222C64.2 11.4774 64.2447 11.5222 64.3 11.5222Z" fill="#65558F"/>
<path d="M64.3 11.0222V1.52219" stroke="#65558F" stroke-width="0.9" stroke-linecap="round" stroke-linejoin="round"/>
<path d="M64.3 1.42217C64.3552 1.42217 64.4 1.3774 64.4 1.32217C64.4 1.26694 64.3552 1.22217 64.3 1.22217C64.2447 1.22217 64.2 1.26694 64.2 1.32217C64.2 1.3774 64.2447 1.42217 64.3 1.42217Z" fill="#65558F"/>
<path d="M63.8 1.32217H54.3" stroke="#65558F" stroke-width="0.9" stroke-linecap="round" stroke-linejoin="round"/>
<path d="M54.1 1.42217C54.1552 1.42217 54.2 1.3774 54.2 1.32217C54.2 1.26694 54.1552 1.22217 54.1 1.22217C54.0448 1.22217 54 1.26694 54 1.32217C54 1.3774 54.0448 1.42217 54.1 1.42217Z" fill="#65558F"/>
<path d="M65.0001 0.722168H63.6001V2.12217H65.0001V0.722168Z" fill="#65558F" stroke="#65558F"/>
<path d="M20.2001 1.52217C20.2553 1.52217 20.3001 1.4774 20.3001 1.42217C20.3001 1.36695 20.2553 1.32217 20.2001 1.32217C20.1449 1.32217 20.1001 1.36695 20.1001 1.42217C20.1001 1.4774 20.1449 1.52217 20.2001 1.52217Z" fill="#65558F"/>
<path d="M19.8 1.42218H10.3" stroke="#65558F" stroke-width="0.9" stroke-linecap="round" stroke-linejoin="round"/>
<path d="M10.1 1.52217C10.1552 1.52217 10.2 1.4774 10.2 1.42217C10.2 1.36695 10.1552 1.32217 10.1 1.32217C10.0448 1.32217 10 1.36695 10 1.42217C10 1.4774 10.0448 1.52217 10.1 1.52217Z" fill="#65558F"/>
<path d="M10.1001 1.92218V11.4222" stroke="#65558F" stroke-width="0.9" stroke-linecap="round" stroke-linejoin="round"/>
<path d="M10.1 11.7222C10.1552 11.7222 10.2 11.6774 10.2 11.6222C10.2 11.567 10.1552 11.5222 10.1 11.5222C10.0448 11.5222 10 11.567 10 11.6222C10 11.6774 10.0448 11.7222 10.1 11.7222Z" fill="#65558F"/>
<path d="M10.9 0.722168H9.5V2.12217H10.9V0.722168Z" fill="#65558F" stroke="#65558F"/>
<path d="M11.2001 45.3222C11.2553 45.3222 11.3001 45.2774 11.3001 45.2222C11.3001 45.167 11.2553 45.1222 11.2001 45.1222C11.1449 45.1222 11.1001 45.167 11.1001 45.2222C11.1001 45.2774 11.1449 45.3222 11.2001 45.3222Z" fill="#65558F"/>
<path d="M11.2 45.7222V55.2222" stroke="#65558F" stroke-width="0.9" stroke-linecap="round" stroke-linejoin="round"/>
<path d="M11.2001 55.5222C11.2553 55.5222 11.3001 55.4774 11.3001 55.4222C11.3001 55.3669 11.2553 55.3222 11.2001 55.3222C11.1449 55.3222 11.1001 55.3669 11.1001 55.4222C11.1001 55.4774 11.1449 55.5222 11.2001 55.5222Z" fill="#65558F"/>
<path d="M11.7 55.4222H21.2" stroke="#65558F" stroke-width="0.9" stroke-linecap="round" stroke-linejoin="round"/>
<path d="M21.4 55.5222C21.4553 55.5222 21.5 55.4774 21.5 55.4222C21.5 55.3669 21.4553 55.3222 21.4 55.3222C21.3448 55.3222 21.3 55.3669 21.3 55.4222C21.3 55.4774 21.3448 55.5222 21.4 55.5222Z" fill="#65558F"/>
<path d="M11.9 54.6222H10.5V56.0222H11.9V54.6222Z" fill="#65558F" stroke="#65558F"/>
<path d="M53.1 55.4222C53.1552 55.4222 53.2 55.3774 53.2 55.3222C53.2 55.2669 53.1552 55.2222 53.1 55.2222C53.0448 55.2222 53 55.2669 53 55.3222C53 55.3774 53.0448 55.4222 53.1 55.4222Z" fill="#65558F"/>
<path d="M53.6001 55.3222H63.1001" stroke="#65558F" stroke-width="0.9" stroke-linecap="round" stroke-linejoin="round"/>
<path d="M63.2999 55.4222C63.3552 55.4222 63.4 55.3774 63.4 55.3222C63.4 55.2669 63.3552 55.2222 63.2999 55.2222C63.2447 55.2222 63.2 55.2669 63.2 55.3222C63.2 55.3774 63.2447 55.4222 63.2999 55.4222Z" fill="#65558F"/>
<path d="M63.3 54.8222V45.3222" stroke="#65558F" stroke-width="0.9" stroke-linecap="round" stroke-linejoin="round"/>
<path d="M63.2999 45.2222C63.3552 45.2222 63.4 45.1774 63.4 45.1222C63.4 45.067 63.3552 45.0222 63.2999 45.0222C63.2447 45.0222 63.2 45.067 63.2 45.1222C63.2 45.1774 63.2447 45.2222 63.2999 45.2222Z" fill="#65558F"/>
<path d="M63.7999 54.6222H62.3999V56.0222H63.7999V54.6222Z" fill="#65558F" stroke="#65558F"/>
<g style="mix-blend-mode:multiply" opacity="0.2">
<path d="M33.2001 31.1222L30 29.2222H27L25.3 30.5222L26.2001 31.9222L30.3 32.2222L33.1 31.1222H33.2001Z" fill="#00FFFF"/>
</g>
<g style="mix-blend-mode:multiply" opacity="0.2">
<path d="M37.1001 49.1222L32.9001 48.6222L31.6001 46.0222L35.1001 43.5222L37.1001 46.0222V49.2222V49.1222Z" fill="#00FFFF"/>
</g>
<path d="M25.3999 30.5222L26.9999 29.2222H29.9999L33.1999 31.1222L30.3999 32.2222L26.2999 31.9222L25.3999 30.5222Z" stroke="#00FFFF" stroke-width="0.6" stroke-linecap="round" stroke-linejoin="round"/>
<path d="M33.3 31.1222L34.7001 35.6222L35.1 31.1222L32.4001 27.1222L31.8 28.5222L33.3 31.1222Z" stroke="#00FFFF" stroke-width="0.6" stroke-linecap="round" stroke-linejoin="round"/>
<path d="M33.3 31.1222H35.1L37.1 30.7222L32.4 27.1222L37.1 26.8222L32.8 22.7222L32.3 25.0222M32.3 25.0222L27 25.7222L27.8 23.4222L32.3 25.0222ZM32.3 25.0222L32.5 27.1222L28.7 27.5222L30.1 29.1222L31.8 28.4222" stroke="#00FFFF" stroke-width="0.6" stroke-linecap="round" stroke-linejoin="round"/>
<path d="M24.2 25.5222L19 20.0222L25.4 24.9222L25.2 16.7222L21.7 12.5222" stroke="#00FFFF" stroke-width="0.6" stroke-linecap="round" stroke-linejoin="round"/>
<path d="M25.2001 16.7222L27.7001 23.4222L29.8001 13.1222L25.6001 6.22217L25.1001 16.7222H25.2001Z" stroke="#00FFFF" stroke-width="0.6" stroke-linecap="round" stroke-linejoin="round"/>
<path d="M29.7999 13.1222L36.9999 19.2222L32.6999 22.7222L29.7999 13.1222ZM29.7999 13.1222L31.6999 3.72217L36.9999 11.6222V36.2222M36.9999 36.2222L34.5999 35.6222L34.9999 39.2222L36.9999 36.2222ZM36.9999 36.2222V40.7222L35.5999 40.0222H34.1999L32.8999 40.7222L25.7999 36.9222L20.8999 36.5222L23.0999 42.9222L24.8999 47.8222L28.4999 52.3222L33.0999 55.4222L36.8999 56.0222V49.0222L33.0999 55.5222" stroke="#00FFFF" stroke-width="0.6" stroke-linecap="round" stroke-linejoin="round"/>
<path d="M34.3 40.1222L35.1 43.4222L35.7001 40.1222" stroke="#00FFFF" stroke-width="0.6" stroke-linecap="round" stroke-linejoin="round"/>
<path d="M33 40.8222L31.5 45.9222L26.7 42.8222L33 40.8222Z" stroke="#00FFFF" stroke-width="0.6" stroke-linecap="round" stroke-linejoin="round"/>
<path d="M25.9 36.9222L26.7 42.7222L23.2 42.9222L25.9 36.9222Z" stroke="#00FFFF" stroke-width="0.6" stroke-linecap="round" stroke-linejoin="round"/>
<path d="M26.4001 31.9222L21.4001 29.8222L21.1001 36.5222L26.5001 31.8222L26.4001 31.9222ZM26.4001 31.9222L25.9001 36.9222L30.5001 32.1222M30.5001 32.1222L33.3001 38.9222L34.7001 35.5222L30.5001 32.1222Z" stroke="#00FFFF" stroke-width="0.6" stroke-linecap="round" stroke-linejoin="round"/>
<path d="M21.3 29.8222L25.4 30.5222" stroke="#00FFFF" stroke-width="0.6" stroke-linecap="round" stroke-linejoin="round"/>
<path d="M27.0001 29.1222L28.6001 27.5222L26.9001 25.7222L25.9001 28.1222L27.1001 29.1222H27.0001ZM27.0001 29.1222L25.4001 30.4222L25.9001 28.0222L23.1001 27.2222M23.1001 27.2222L24.2001 25.4222L25.4001 24.8222L26.9001 25.6222L23.1001 27.2222ZM23.1001 27.2222L21.4001 29.7222L19.1001 19.9222L21.8001 12.3222L25.8001 6.02219L31.9001 3.52219L37.2001 3.02219V11.4222L30.0001 12.9222L25.3001 16.5222L19.1001 19.8222" stroke="#00FFFF" stroke-width="0.6" stroke-linecap="round" stroke-linejoin="round"/>
<path d="M33.3 39.0222L34.4001 40.3222L35.2001 39.2222L35.8 40.3222" stroke="#00FFFF" stroke-width="0.6" stroke-linecap="round" stroke-linejoin="round"/>
<path d="M35.1 43.4222L37.1 40.7222V45.9222M35.1 43.4222L37.1 45.9222M35.1 43.4222L31.6 45.9222M37.1 45.9222H31.6M37.1 45.9222V49.0222M31.6 45.9222L37.1 49.0222M31.6 45.9222L32.9 48.5222L37.1 49.0222M31.6 45.9222L28.7 52.3222L37.1 49.0222M31.6 45.9222L25 47.8222L26.7 42.8222" stroke="#00FFFF" stroke-width="0.6" stroke-linecap="round" stroke-linejoin="round"/>
<path d="M32.8001 48.5222L28.6001 52.3222" stroke="#00FFFF" stroke-width="0.6" stroke-linecap="round" stroke-linejoin="round"/>
<path d="M33.1999 39.0222L32.8999 40.8222" stroke="#00FFFF" stroke-width="0.6" stroke-linecap="round" stroke-linejoin="round"/>
<path d="M37.6001 56.0222C37.6001 56.3222 37.4001 56.5222 37.1001 56.5222C36.8001 56.5222 36.6001 56.3222 36.6001 56.0222C36.6001 55.7222 36.8001 55.5222 37.1001 55.5222C37.4001 55.5222 37.6001 55.7222 37.6001 56.0222Z" fill="white"/>
<path d="M37.6001 49.1222C37.6001 49.4222 37.4001 49.6222 37.1001 49.6222C36.8001 49.6222 36.6001 49.4222 36.6001 49.1222C36.6001 48.8222 36.8001 48.6222 37.1001 48.6222C37.4001 48.6222 37.6001 48.8222 37.6001 49.1222Z" fill="white"/>
<path d="M37.6001 45.9222C37.6001 46.2222 37.4001 46.4222 37.1001 46.4222C36.8001 46.4222 36.6001 46.2222 36.6001 45.9222C36.6001 45.6222 36.8001 45.4222 37.1001 45.4222C37.4001 45.4222 37.6001 45.6222 37.6001 45.9222Z" fill="white"/>
<path d="M37.6001 40.7222C37.6001 41.0222 37.4001 41.2222 37.1001 41.2222C36.8001 41.2222 36.6001 41.0222 36.6001 40.7222C36.6001 40.4222 36.8001 40.2222 37.1001 40.2222C37.4001 40.2222 37.6001 40.4222 37.6001 40.7222Z" fill="white"/>
<path d="M37.6001 36.1222C37.6001 36.4222 37.4001 36.6222 37.1001 36.6222C36.8001 36.6222 36.6001 36.4222 36.6001 36.1222C36.6001 35.8222 36.8001 35.6222 37.1001 35.6222C37.4001 35.6222 37.6001 35.8222 37.6001 36.1222Z" fill="white"/>
<path d="M37.6001 30.7222C37.6001 31.0222 37.4001 31.2222 37.1001 31.2222C36.8001 31.2222 36.6001 31.0222 36.6001 30.7222C36.6001 30.4222 36.8001 30.2222 37.1001 30.2222C37.4001 30.2222 37.6001 30.4222 37.6001 30.7222Z" fill="white"/>
<path d="M37.6001 26.8222C37.6001 27.1222 37.4001 27.3222 37.1001 27.3222C36.8001 27.3222 36.6001 27.1222 36.6001 26.8222C36.6001 26.5222 36.8001 26.3222 37.1001 26.3222C37.4001 26.3222 37.6001 26.5222 37.6001 26.8222Z" fill="white"/>
<path d="M37.6001 19.3222C37.6001 19.6222 37.4001 19.8222 37.1001 19.8222C36.8001 19.8222 36.6001 19.6222 36.6001 19.3222C36.6001 19.0222 36.8001 18.8222 37.1001 18.8222C37.4001 18.8222 37.6001 19.0222 37.6001 19.3222Z" fill="white"/>
<path d="M37.6001 11.6222C37.6001 11.9222 37.4001 12.1222 37.1001 12.1222C36.8001 12.1222 36.6001 11.9222 36.6001 11.6222C36.6001 11.3222 36.8001 11.1222 37.1001 11.1222C37.4001 11.1222 37.6001 11.3222 37.6001 11.6222Z" fill="white"/>
<path d="M37.6001 3.22217C37.6001 3.52217 37.4001 3.72217 37.1001 3.72217C36.8001 3.72217 36.6001 3.52217 36.6001 3.22217C36.6001 2.92217 36.8001 2.72217 37.1001 2.72217C37.4001 2.72217 37.6001 2.92217 37.6001 3.22217Z" fill="white"/>
<path d="M32.3999 3.82217C32.3999 4.12217 32.1999 4.32217 31.8999 4.32217C31.5999 4.32217 31.3999 4.12217 31.3999 3.82217C31.3999 3.52217 31.5999 3.32217 31.8999 3.32217C32.1999 3.32217 32.3999 3.52217 32.3999 3.82217Z" fill="white"/>
<path d="M26.3 6.22217C26.3 6.52217 26.1 6.72217 25.8 6.72217C25.5 6.72217 25.3 6.52217 25.3 6.22217C25.3 5.92217 25.5 5.72217 25.8 5.72217C26.1 5.72217 26.3 5.92217 26.3 6.22217Z" fill="white"/>
<path d="M25.7 16.7222C25.7 17.0222 25.5 17.2222 25.2 17.2222C24.9 17.2222 24.7 17.0222 24.7 16.7222C24.7 16.4222 24.9 16.2222 25.2 16.2222C25.5 16.2222 25.7 16.4222 25.7 16.7222Z" fill="white"/>
<path d="M22.2 12.5222C22.2 12.8222 22 13.0222 21.7 13.0222C21.4 13.0222 21.2 12.8222 21.2 12.5222C21.2 12.2222 21.4 12.0222 21.7 12.0222C22 12.0222 22.2 12.2222 22.2 12.5222Z" fill="white"/>
<path d="M19.6001 20.1222C19.6001 20.4222 19.4001 20.6222 19.1001 20.6222C18.8001 20.6222 18.6001 20.4222 18.6001 20.1222C18.6001 19.8222 18.8001 19.6222 19.1001 19.6222C19.4001 19.6222 19.6001 19.8222 19.6001 20.1222Z" fill="white"/>
<path d="M33.3 22.8222C33.3 23.1222 33.1 23.3222 32.8 23.3222C32.5 23.3222 32.3 23.1222 32.3 22.8222C32.3 22.5222 32.5 22.3222 32.8 22.3222C33.1 22.3222 33.3 22.5222 33.3 22.8222Z" fill="white"/>
<path d="M28.3 23.4222C28.3 23.7222 28.1 23.9222 27.8 23.9222C27.5 23.9222 27.3 23.7222 27.3 23.4222C27.3 23.1222 27.5 22.9222 27.8 22.9222C28.1 22.9222 28.3 23.1222 28.3 23.4222Z" fill="white"/>
<path d="M26 25.0222C26 25.3222 25.8 25.5222 25.5 25.5222C25.2 25.5222 25 25.3222 25 25.0222C25 24.7222 25.2 24.5222 25.5 24.5222C25.8 24.5222 26 24.7222 26 25.0222Z" fill="white"/>
<path d="M24.7 25.5222C24.7 25.8222 24.5 26.0222 24.2 26.0222C23.9 26.0222 23.7 25.8222 23.7 25.5222C23.7 25.2222 23.9 25.0222 24.2 25.0222C24.5 25.0222 24.7 25.2222 24.7 25.5222Z" fill="white"/>
<path d="M32.2 25.6222C31.9 25.6222 31.7 25.4222 31.7 25.1222C31.7 24.8222 31.9 24.6222 32.2 24.6222C32.5 24.6222 32.7 24.8222 32.7 25.1222C32.7 25.4222 32.5 25.6222 32.2 25.6222Z" fill="white"/>
<path d="M33.1001 27.1222C33.1001 27.4222 32.9001 27.6222 32.6001 27.6222C32.3001 27.6222 32.1001 27.4222 32.1001 27.1222C32.1001 26.8222 32.3001 26.6222 32.6001 26.6222C32.9001 26.6222 33.1001 26.8222 33.1001 27.1222Z" fill="white"/>
<path d="M26.8999 26.2222C26.5999 26.2222 26.3999 26.0222 26.3999 25.7222C26.3999 25.4222 26.5999 25.2222 26.8999 25.2222C27.1999 25.2222 27.3999 25.4222 27.3999 25.7222C27.3999 26.0222 27.1999 26.2222 26.8999 26.2222Z" fill="white"/>
<path d="M23.8 27.3222C23.8 27.6222 23.6 27.8222 23.3 27.8222C23 27.8222 22.8 27.6222 22.8 27.3222C22.8 27.0222 23 26.8222 23.3 26.8222C23.6 26.8222 23.8 27.0222 23.8 27.3222Z" fill="white"/>
<path d="M21.8999 29.8222C21.8999 30.1222 21.6999 30.3222 21.3999 30.3222C21.0999 30.3222 20.8999 30.1222 20.8999 29.8222C20.8999 29.5222 21.0999 29.3222 21.3999 29.3222C21.6999 29.3222 21.8999 29.5222 21.8999 29.8222Z" fill="white"/>
<path d="M26.3999 28.1222C26.3999 28.4222 26.1999 28.6222 25.8999 28.6222C25.5999 28.6222 25.3999 28.4222 25.3999 28.1222C25.3999 27.8222 25.5999 27.6222 25.8999 27.6222C26.1999 27.6222 26.3999 27.8222 26.3999 28.1222Z" fill="white"/>
<path d="M26 30.5222C26 30.8222 25.8 31.0222 25.5 31.0222C25.2 31.0222 25 30.8222 25 30.5222C25 30.2222 25.2 30.0222 25.5 30.0222C25.8 30.0222 26 30.2222 26 30.5222Z" fill="white"/>
<path d="M26.8999 31.9222C26.8999 32.2222 26.6999 32.4222 26.3999 32.4222C26.0999 32.4222 25.8999 32.2222 25.8999 31.9222C25.8999 31.6222 26.0999 31.4222 26.3999 31.4222C26.6999 31.4222 26.8999 31.6222 26.8999 31.9222Z" fill="white"/>
<path d="M27.6001 29.1222C27.6001 29.4222 27.4001 29.6222 27.1001 29.6222C26.8001 29.6222 26.6001 29.4222 26.6001 29.1222C26.6001 28.8222 26.8001 28.6222 27.1001 28.6222C27.4001 28.6222 27.6001 28.8222 27.6001 29.1222Z" fill="white"/>
<path d="M29.2 27.6222C29.2 27.9222 29 28.1222 28.7 28.1222C28.4 28.1222 28.2 27.9222 28.2 27.6222C28.2 27.3222 28.4 27.1222 28.7 27.1222C29 27.1222 29.2 27.3222 29.2 27.6222Z" fill="white"/>
<path d="M30.6001 29.1222C30.6001 29.4222 30.4001 29.6222 30.1001 29.6222C29.8001 29.6222 29.6001 29.4222 29.6001 29.1222C29.6001 28.8222 29.8001 28.6222 30.1001 28.6222C30.4001 28.6222 30.6001 28.8222 30.6001 29.1222Z" fill="white"/>
<path d="M32.3 28.5222C32.3 28.8222 32.1 29.0222 31.8 29.0222C31.5 29.0222 31.3 28.8222 31.3 28.5222C31.3 28.2222 31.5 28.0222 31.8 28.0222C32.1 28.0222 32.3 28.2222 32.3 28.5222Z" fill="white"/>
<path d="M33.8 31.1222C33.8 31.4222 33.6 31.6222 33.3 31.6222C33 31.6222 32.8 31.4222 32.8 31.1222C32.8 30.8222 33 30.6222 33.3 30.6222C33.6 30.6222 33.8 30.8222 33.8 31.1222Z" fill="white"/>
<path d="M35.6001 31.1222C35.6001 31.4222 35.4001 31.6222 35.1001 31.6222C34.8001 31.6222 34.6001 31.4222 34.6001 31.1222C34.6001 30.8222 34.8001 30.6222 35.1001 30.6222C35.4001 30.6222 35.6001 30.8222 35.6001 31.1222Z" fill="white"/>
<path d="M35.2 35.5222C35.2 35.8222 35 36.0222 34.7 36.0222C34.4 36.0222 34.2 35.8222 34.2 35.5222C34.2 35.2222 34.4 35.0222 34.7 35.0222C35 35.0222 35.2 35.2222 35.2 35.5222Z" fill="white"/>
<path d="M31 32.2222C31 32.5222 30.8 32.7222 30.5 32.7222C30.2 32.7222 30 32.5222 30 32.2222C30 31.9222 30.2 31.7222 30.5 31.7222C30.8 31.7222 31 31.9222 31 32.2222Z" fill="white"/>
<path d="M33.8 39.0222C33.8 39.3222 33.6 39.5222 33.3 39.5222C33 39.5222 32.8 39.3222 32.8 39.0222C32.8 38.7222 33 38.5222 33.3 38.5222C33.6 38.5222 33.8 38.7222 33.8 39.0222Z" fill="white"/>
<path d="M35.6001 39.1222C35.6001 39.4222 35.4001 39.6222 35.1001 39.6222C34.8001 39.6222 34.6001 39.4222 34.6001 39.1222C34.6001 38.8222 34.8001 38.6222 35.1001 38.6222C35.4001 38.6222 35.6001 38.8222 35.6001 39.1222Z" fill="white"/>
<path d="M36.2 40.2222C36.2 40.5222 36 40.7222 35.7 40.7222C35.4 40.7222 35.2 40.5222 35.2 40.2222C35.2 39.9222 35.4 39.7222 35.7 39.7222C36 39.7222 36.2 39.9222 36.2 40.2222Z" fill="white"/>
<path d="M34.8 40.2222C34.8 40.5222 34.6 40.7222 34.3 40.7222C34 40.7222 33.8 40.5222 33.8 40.2222C33.8 39.9222 34 39.7222 34.3 39.7222C34.6 39.7222 34.8 39.9222 34.8 40.2222Z" fill="white"/>
<path d="M35.6001 43.4222C35.6001 43.7222 35.4001 43.9222 35.1001 43.9222C34.8001 43.9222 34.6001 43.7222 34.6001 43.4222C34.6001 43.1222 34.8001 42.9222 35.1001 42.9222C35.4001 42.9222 35.6001 43.1222 35.6001 43.4222Z" fill="white"/>
<path d="M31.6001 46.4222C31.3001 46.4222 31.1001 46.2222 31.1001 45.9222C31.1001 45.6222 31.3001 45.4222 31.6001 45.4222C31.9001 45.4222 32.1001 45.6222 32.1001 45.9222C32.1001 46.2222 31.9001 46.4222 31.6001 46.4222Z" fill="white"/>
<path d="M32.8999 49.1222C32.5999 49.1222 32.3999 48.9222 32.3999 48.6222C32.3999 48.3222 32.5999 48.1222 32.8999 48.1222C33.1999 48.1222 33.3999 48.3222 33.3999 48.6222C33.3999 48.9222 33.1999 49.1222 32.8999 49.1222Z" fill="white"/>
<path d="M26.7 43.3222C26.4 43.3222 26.2 43.1222 26.2 42.8222C26.2 42.5222 26.4 42.3222 26.7 42.3222C27 42.3222 27.2 42.5222 27.2 42.8222C27.2 43.1222 27 43.3222 26.7 43.3222Z" fill="white"/>
<path d="M33.5 40.8222C33.5 41.1222 33.3 41.3222 33 41.3222C32.7 41.3222 32.5 41.1222 32.5 40.8222C32.5 40.5222 32.7 40.3222 33 40.3222C33.3 40.3222 33.5 40.5222 33.5 40.8222Z" fill="white"/>
<path d="M26.3999 36.9222C26.3999 37.2222 26.1999 37.4222 25.8999 37.4222C25.5999 37.4222 25.3999 37.2222 25.3999 36.9222C25.3999 36.6222 25.5999 36.4222 25.8999 36.4222C26.1999 36.4222 26.3999 36.6222 26.3999 36.9222Z" fill="white"/>
<path d="M21.5 36.6222C21.5 36.9222 21.3 37.1222 21 37.1222C20.7 37.1222 20.5 36.9222 20.5 36.6222C20.5 36.3222 20.7 36.1222 21 36.1222C21.3 36.1222 21.5 36.3222 21.5 36.6222Z" fill="white"/>
<path d="M23.7 42.9222C23.7 43.2222 23.5 43.4222 23.2 43.4222C22.9 43.4222 22.7 43.2222 22.7 42.9222C22.7 42.6222 22.9 42.4222 23.2 42.4222C23.5 42.4222 23.7 42.6222 23.7 42.9222Z" fill="white"/>
<path d="M30.3999 13.1222C30.3999 13.4222 30.1999 13.6222 29.8999 13.6222C29.5999 13.6222 29.3999 13.4222 29.3999 13.1222C29.3999 12.8222 29.5999 12.6222 29.8999 12.6222C30.1999 12.6222 30.3999 12.8222 30.3999 13.1222Z" fill="white"/>
<path d="M34 55.5222C34 55.8222 33.8 56.0222 33.5 56.0222C33.2 56.0222 33 55.8222 33 55.5222C33 55.2222 33.2 55.0222 33.5 55.0222C33.8 55.0222 34 55.2222 34 55.5222Z" fill="white"/>
<path d="M29.2 52.3222C29.2 52.6222 29 52.8222 28.7 52.8222C28.4 52.8222 28.2 52.6222 28.2 52.3222C28.2 52.0222 28.4 51.8222 28.7 51.8222C29 51.8222 29.2 52.0222 29.2 52.3222Z" fill="white"/>
<path d="M25.5 47.8222C25.5 48.1222 25.3 48.3222 25 48.3222C24.7 48.3222 24.5 48.1222 24.5 47.8222C24.5 47.5222 24.7 47.3222 25 47.3222C25.3 47.3222 25.5 47.5222 25.5 47.8222Z" fill="white"/>
</g>
<defs>
<clipPath id="clip0_469_10454">
<rect width="76" height="70" fill="white" transform="translate(0 0.222168)"/>
</clipPath>
</defs>
</svg>
