<svg width="70" height="70" viewBox="0 0 70 70" fill="none" xmlns="http://www.w3.org/2000/svg">
<path d="M63.4375 27.3438C63.7276 27.3438 64.0058 27.2285 64.2109 27.0234C64.416 26.8183 64.5312 26.5401 64.5312 26.25V17.5C64.5312 16.6298 64.1855 15.7952 63.5702 15.1798C62.9548 14.5645 62.1202 14.2188 61.25 14.2188H8.75C7.87976 14.2188 7.04516 14.5645 6.42981 15.1798C5.81445 15.7952 5.46875 16.6298 5.46875 17.5V26.25C5.46875 26.5401 5.58398 26.8183 5.7891 27.0234C5.99422 27.2285 6.27242 27.3438 6.5625 27.3438C8.59306 27.3438 10.5405 28.1504 11.9763 29.5862C13.4121 31.022 14.2188 32.9694 14.2188 35C14.2188 37.0306 13.4121 38.978 11.9763 40.4138C10.5405 41.8496 8.59306 42.6562 6.5625 42.6562C6.27242 42.6562 5.99422 42.7715 5.7891 42.9766C5.58398 43.1817 5.46875 43.4599 5.46875 43.75V52.5C5.46875 53.3702 5.81445 54.2048 6.42981 54.8202C7.04516 55.4355 7.87976 55.7812 8.75 55.7812H61.25C62.1202 55.7812 62.9548 55.4355 63.5702 54.8202C64.1855 54.2048 64.5312 53.3702 64.5312 52.5V43.75C64.5312 43.4599 64.416 43.1817 64.2109 42.9766C64.0058 42.7715 63.7276 42.6562 63.4375 42.6562C61.4069 42.6562 59.4595 41.8496 58.0237 40.4138C56.5879 38.978 55.7812 37.0306 55.7812 35C55.7812 32.9694 56.5879 31.022 58.0237 29.5862C59.4595 28.1504 61.4069 27.3438 63.4375 27.3438ZM7.65625 52.5V44.7836C10.064 44.5162 12.2886 43.3703 13.9043 41.5652C15.5201 39.7601 16.4134 37.4226 16.4134 35C16.4134 32.5774 15.5201 30.2399 13.9043 28.4348C12.2886 26.6297 10.064 25.4838 7.65625 25.2164V17.5C7.65625 17.2099 7.77148 16.9317 7.9766 16.7266C8.18172 16.5215 8.45992 16.4062 8.75 16.4062H25.1562V53.5938H8.75C8.45992 53.5938 8.18172 53.4785 7.9766 53.2734C7.77148 53.0683 7.65625 52.7901 7.65625 52.5ZM53.5938 35C53.5972 37.4205 54.4907 39.7551 56.1043 41.5593C57.7179 43.3634 59.9387 44.5111 62.3438 44.7836V52.5C62.3438 52.7901 62.2285 53.0683 62.0234 53.2734C61.8183 53.4785 61.5401 53.5938 61.25 53.5938H27.3438V16.4062H61.25C61.5401 16.4062 61.8183 16.5215 62.0234 16.7266C62.2285 16.9317 62.3438 17.2099 62.3438 17.5V25.2164C59.9387 25.4889 57.7179 26.6366 56.1043 28.4407C54.4907 30.2449 53.5972 32.5795 53.5938 35Z" fill="white"/>
<path d="M42.8111 30.9978C42.8111 32.1161 43.7173 33.0185 44.8326 33.0185C45.948 33.0185 46.8542 32.1126 46.8542 30.9978C46.8542 29.8829 45.948 28.977 44.8326 28.977C43.7173 28.977 42.8111 29.8794 42.8111 30.9978Z" fill="#76BC21"/>
<path d="M34.6966 30.8927C34.6966 32.0089 35.6031 32.915 36.7166 32.915C37.8333 32.915 38.7397 32.012 38.7397 30.8927C38.7397 29.7765 37.8333 28.8736 36.7166 28.8736C35.6031 28.8704 34.6966 29.7765 34.6966 30.8927Z" fill="#98989A"/>
<path d="M42.9177 39.1011C42.9177 40.2173 43.8242 41.1234 44.9408 41.1234C46.0575 41.1234 46.964 40.2173 46.964 39.1011C46.964 37.9849 46.0575 37.0788 44.9408 37.0788C43.8242 37.0788 42.9177 37.9849 42.9177 39.1011Z" fill="#98989A"/>
<path d="M34.6966 39.1011C34.6966 40.2173 35.6031 41.1234 36.7166 41.1234C37.8333 41.1234 38.7397 40.2173 38.7397 39.1011C38.7397 37.9849 37.8333 37.0788 36.7166 37.0788C35.6031 37.0788 34.6966 37.9849 34.6966 39.1011Z" fill="#76BC21"/>
<path d="M32.1716 31.9807C33.373 31.9807 34.4081 32.6861 34.8911 33.702C35.0354 33.9466 35.3271 34.3259 35.7568 34.3259V34.3291H37.2342V34.3259C37.8521 34.3259 38.1814 33.5452 38.2034 33.5076V33.5264C38.2661 33.4167 38.3351 33.3101 38.4104 33.2098C38.4167 33.2035 38.4198 33.1941 38.4261 33.1878C38.4574 33.147 38.4888 33.1063 38.5202 33.0687C38.5327 33.053 38.5453 33.0373 38.5578 33.0248C38.5829 32.9965 38.6111 32.9652 38.6394 32.937C38.6613 32.915 38.6833 32.8931 38.7052 32.8711C38.724 32.8523 38.746 32.8335 38.7648 32.8116C38.7962 32.7833 38.8276 32.7551 38.8589 32.7269C38.8715 32.7175 38.884 32.705 38.8966 32.6956C38.9373 32.6611 38.9781 32.6266 39.022 32.5952L39.0346 32.5858C39.1349 32.5106 39.2416 32.4385 39.3545 32.3757H39.3451C39.3514 32.3726 39.3796 32.3601 39.4172 32.3413L39.4204 32.3381C39.4392 32.3287 39.458 32.3193 39.4768 32.3099C39.7089 32.1814 40.1638 31.8804 40.1638 31.4069H40.1669V29.9302H40.1638C40.1638 29.4724 39.7309 29.1714 39.4925 29.0366C39.458 29.0209 39.4235 29.0021 39.3921 28.9833C39.3671 28.9707 39.3451 28.9613 39.3451 28.9613H39.3514C38.4355 28.444 37.8176 27.4658 37.8176 26.3433C37.8176 24.6816 39.1663 23.3334 40.8287 23.3334C42.4911 23.3334 43.8399 24.6816 43.8399 26.3433C43.8399 27.4689 43.222 28.4471 42.3061 28.9613H42.3123C42.3123 28.9613 42.2967 28.9707 42.281 28.977C42.2402 28.999 42.1963 29.0209 42.1555 29.0429C41.9171 29.1777 41.4937 29.4755 41.4937 29.9302V31.4069C41.4937 31.8678 41.9265 32.1688 42.1649 32.3005C42.1963 32.3162 42.2308 32.335 42.2622 32.3507C42.2904 32.3632 42.3092 32.3726 42.3155 32.3757H42.3092C42.419 32.4385 42.5256 32.5074 42.6291 32.5827C42.6354 32.5858 42.6386 32.589 42.6448 32.5952C42.6856 32.6266 42.7264 32.6611 42.7672 32.6956C42.7797 32.705 42.7922 32.7175 42.8079 32.73C42.8393 32.7583 42.8707 32.7865 42.8989 32.8147C42.9208 32.8335 42.9397 32.8555 42.9616 32.8743C42.9836 32.8962 43.0024 32.915 43.0244 32.937C43.0526 32.9652 43.0808 32.9965 43.1059 33.0279C43.1185 33.0404 43.1279 33.0561 43.1404 33.0687C43.1749 33.1094 43.2063 33.1502 43.2376 33.1909C43.2408 33.1972 43.2471 33.2035 43.2502 33.2098C43.3255 33.3101 43.3945 33.4167 43.4572 33.5264V33.517C43.4603 33.5233 43.4729 33.5515 43.4917 33.5891L43.498 33.5985C43.5074 33.6142 43.5168 33.633 43.5231 33.6487C43.6517 33.8807 43.9528 34.3353 44.4233 34.3353V34.3385H45.9006V34.3353C46.3617 34.3353 46.6597 33.9027 46.7946 33.6644C46.8103 33.6299 46.8291 33.5954 46.8479 33.564C46.8604 33.539 46.8699 33.517 46.8699 33.517V33.5233C47.3874 32.6078 48.366 31.9901 49.4889 31.9901C51.1513 31.9901 52.5001 33.3383 52.5001 35C52.5001 36.6618 51.1513 38.01 49.4889 38.01C48.3629 38.01 47.3843 37.3923 46.8699 36.4768V36.4831C46.8699 36.4831 46.8604 36.4674 46.8542 36.4517C46.8322 36.411 46.8103 36.3671 46.7883 36.3263C46.6534 36.088 46.3554 35.6647 45.9006 35.6647H44.4233C43.9622 35.6647 43.6611 36.1006 43.5294 36.3357C43.5137 36.3671 43.4948 36.3984 43.4792 36.4298C43.4666 36.458 43.4572 36.4768 43.4541 36.4831V36.4768C43.3913 36.5897 43.3223 36.6963 43.2439 36.7966C43.2408 36.8029 43.2345 36.8091 43.2345 36.8091C43.2031 36.853 43.1686 36.8938 43.1341 36.9346C43.1247 36.9471 43.1122 36.9596 43.1028 36.9722C43.0745 37.0035 43.0463 37.038 43.0149 37.0662C42.9961 37.0851 42.9773 37.107 42.9585 37.1258C42.9365 37.1478 42.9114 37.1697 42.8895 37.1917C42.8612 37.2167 42.833 37.245 42.8048 37.27C42.7891 37.2826 42.7734 37.2983 42.7577 37.3108C42.7201 37.3422 42.6825 37.3735 42.6417 37.4049C42.6323 37.4111 42.626 37.4174 42.6166 37.4237C42.5695 37.4582 42.5194 37.4927 42.4692 37.5271L42.466 37.5303C42.4127 37.5648 42.3563 37.5993 42.2998 37.6306H42.3155C42.2778 37.6526 41.4937 37.9818 41.4937 38.5994V40.0762C41.4937 40.5026 41.8669 40.791 42.1085 40.9353C43.131 41.415 43.843 42.4528 43.843 43.6568C43.843 45.3185 42.4943 46.6667 40.8319 46.6667C39.1695 46.6667 37.8207 45.3185 37.8207 43.6568C37.8207 42.4559 38.5264 41.4213 39.5427 40.9384C39.7842 40.7942 40.1669 40.5026 40.1669 40.0731H40.17V38.5963H40.1669C40.1669 37.9786 39.3859 37.6494 39.3482 37.6275H39.3671C39.2573 37.5648 39.1506 37.4958 39.0471 37.4205C39.0408 37.4143 39.0314 37.4111 39.0252 37.4049C38.9844 37.3735 38.9436 37.3422 38.906 37.3077C38.8903 37.2951 38.8777 37.2826 38.8621 37.27C38.8307 37.2418 38.8025 37.2167 38.7711 37.1885C38.7491 37.1666 38.7272 37.1478 38.7052 37.1258C38.6833 37.1039 38.6645 37.0851 38.6456 37.0631C38.6174 37.0318 38.5892 37.0004 38.5609 36.969C38.5484 36.9565 38.5359 36.9408 38.5264 36.9283C38.4919 36.8875 38.4606 36.8468 38.4292 36.806C38.4229 36.7997 38.4198 36.7935 38.4135 36.7872C38.3382 36.6837 38.2692 36.5771 38.2065 36.4674V36.4831C38.1846 36.4454 37.8552 35.6647 37.2373 35.6647H35.7599C35.3334 35.6647 35.0448 36.0347 34.9005 36.2793C34.4206 37.3014 33.3824 38.0131 32.1779 38.0131C30.5155 38.0131 29.1668 36.6649 29.1668 35.0032C29.1605 33.3289 30.5092 31.9807 32.1716 31.9807ZM49.4889 36.6461C50.4048 36.6461 51.1451 35.9062 51.1451 34.9906C51.1451 34.0751 50.4048 33.3352 49.4889 33.3352C48.573 33.3352 47.8328 34.0751 47.8328 34.9906C47.8328 35.9062 48.573 36.6461 49.4889 36.6461ZM42.4849 26.337C42.4849 25.4215 41.7446 24.6816 40.8287 24.6816C39.9128 24.6816 39.1726 25.4215 39.1726 26.337C39.1726 27.2526 39.9128 27.9925 40.8287 27.9925C41.7446 27.9925 42.4849 27.2494 42.4849 26.337ZM39.1726 43.6474C39.1726 44.5629 39.9128 45.3028 40.8287 45.3028C41.7446 45.3028 42.4849 44.5629 42.4849 43.6474C42.4849 42.7318 41.7446 41.9919 40.8287 41.9919C39.916 41.9919 39.1726 42.7318 39.1726 43.6474ZM40.8287 36.6461C41.7446 36.6461 42.4849 35.9062 42.4849 34.9906C42.4849 34.0751 41.7446 33.3352 40.8287 33.3352C39.9128 33.3352 39.1726 34.0751 39.1726 34.9906C39.1726 35.9062 39.916 36.6461 40.8287 36.6461ZM32.1716 36.6461C33.0875 36.6461 33.8278 35.9062 33.8278 34.9906C33.8278 34.0751 33.0875 33.3352 32.1716 33.3352C31.2558 33.3352 30.5155 34.0751 30.5155 34.9906C30.5155 35.9062 31.2558 36.6461 32.1716 36.6461Z" fill="#76BC21"/>
</svg>
