<svg width="24" height="25" viewBox="0 0 24 25" fill="none" xmlns="http://www.w3.org/2000/svg">
<g id="icon / weight">
<path id="Vector" fill-rule="evenodd" clip-rule="evenodd" d="M12 3.5C11.6021 3.5 11.2206 3.65804 10.9393 3.93934C10.658 4.22064 10.5 4.60218 10.5 5C10.5 5.39782 10.658 5.77936 10.9393 6.06066C11.2206 6.34196 11.6021 6.5 12 6.5C12.3978 6.5 12.7793 6.34196 13.0606 6.06066C13.3419 5.77936 13.5 5.39782 13.5 5C13.5 4.60218 13.3419 4.22064 13.0606 3.93934C12.7793 3.65804 12.3978 3.5 12 3.5ZM9.49997 5C9.49997 4.33696 9.76336 3.70107 10.2322 3.23223C10.701 2.76339 11.3369 2.5 12 2.5C12.663 2.5 13.2989 2.76339 13.7677 3.23223C14.2366 3.70107 14.5 4.33696 14.5 5C14.5 5.66304 14.2366 6.29893 13.7677 6.76777C13.2989 7.23661 12.663 7.5 12 7.5C11.3369 7.5 10.701 7.23661 10.2322 6.76777C9.76336 6.29893 9.49997 5.66304 9.49997 5ZM11.993 8C14.017 7.991 15.998 8.354 18.4195 9.06C18.611 9.11297 18.7901 9.20346 18.9463 9.32622C19.1026 9.44897 19.2329 9.60156 19.3297 9.7751C19.4265 9.94864 19.4878 10.1397 19.5101 10.3371C19.5325 10.5346 19.5154 10.7345 19.4598 10.9253C19.4042 11.116 19.3113 11.2939 19.1864 11.4484C19.0615 11.603 18.9072 11.7312 18.7323 11.8256C18.5575 11.92 18.3656 11.9788 18.1679 11.9984C17.9701 12.018 17.7705 11.9982 17.5805 11.94C17.229 11.8374 16.8759 11.74 16.5215 11.648C16.7615 12.4405 16.968 13.266 16.9965 14.0745C17.0345 15.16 16.754 16.2285 15.853 17.1825L15.494 21.136C15.4595 21.5208 15.2778 21.8775 14.9868 22.1317C14.6958 22.3859 14.3179 22.518 13.9319 22.5004C13.5459 22.4829 13.1816 22.3171 12.9148 22.0376C12.6481 21.7581 12.4995 21.3864 12.5 21V18.4975C12.3363 18.4995 12.1726 18.5003 12.009 18.5H11.991C11.8273 18.5003 11.6636 18.4995 11.5 18.4975V21C11.5005 21.3864 11.3519 21.7581 11.0851 22.0376C10.8184 22.3171 10.454 22.4829 10.068 22.5004C9.68205 22.518 9.30419 22.3859 9.01319 22.1317C8.72218 21.8775 8.54049 21.5208 8.50597 21.136L8.14647 17.1825C7.24897 16.2315 6.96647 15.167 7.00297 14.0845C7.02997 13.277 7.23497 12.453 7.47447 11.661C7.13114 11.747 6.7733 11.8418 6.40097 11.9455C6.0176 12.0519 5.60768 12.0016 5.2614 11.8057C4.91511 11.6098 4.66082 11.2844 4.55447 10.901C4.44812 10.5176 4.49842 10.1077 4.6943 9.76143C4.89018 9.41514 5.2156 9.16085 5.59897 9.0545C7.99997 8.388 9.97397 8.01 11.993 8ZM18.14 10.02C15.77 9.3295 13.891 8.9915 11.9975 9C10.106 9.0085 8.22897 9.3625 5.86597 10.018C5.73814 10.0535 5.62963 10.1383 5.56432 10.2537C5.49901 10.3692 5.48225 10.5059 5.51772 10.6337C5.55319 10.7616 5.638 10.8701 5.75347 10.9354C5.86895 11.0007 6.00564 11.0175 6.13347 10.982C6.78735 10.7987 7.44591 10.6324 8.10847 10.4835L8.96047 10.2945L8.69247 11.125C8.34747 12.1925 8.03347 13.185 8.00247 14.118C7.97247 15.017 8.20747 15.845 8.97897 16.603L9.10997 16.7315L9.50197 21.045C9.51348 21.1733 9.57402 21.2921 9.67098 21.3768C9.76795 21.4616 9.89386 21.5056 10.0225 21.4998C10.1511 21.494 10.2726 21.4388 10.3615 21.3457C10.4505 21.2526 10.5001 21.1288 10.5 21V17.4435L11.0335 17.4795C11.3335 17.4995 11.648 17.5 12 17.5C12.352 17.5 12.6665 17.5 12.9665 17.48L13.5 17.443V21C13.4999 21.1288 13.5495 21.2526 13.6384 21.3457C13.7274 21.4388 13.8488 21.494 13.9774 21.4998C14.1061 21.5056 14.232 21.4616 14.329 21.3768C14.4259 21.2921 14.4865 21.1733 14.498 21.045L14.89 16.7315L15.021 16.603C15.795 15.843 16.029 15.0125 15.997 14.1095C15.9645 13.173 15.647 12.177 15.3015 11.106L15.032 10.272L15.887 10.465C16.505 10.604 17.1575 10.775 17.86 10.98C17.9873 11.0171 18.1241 11.0022 18.2404 10.9384C18.3567 10.8746 18.4428 10.7673 18.48 10.64C18.5171 10.5127 18.5021 10.3759 18.4384 10.2596C18.3746 10.1433 18.2673 10.0571 18.14 10.02Z" fill="#74BC1F"/>
</g>
</svg>
