<svg width="70" height="70" viewBox="0 0 70 70" fill="none" xmlns="http://www.w3.org/2000/svg">
<path d="M9.05901 6.03189C7.8175 6.32803 6.61015 7.31896 6.04065 8.52631L5.74451 9.15276V35.0651V60.9775L6.04065 61.6039C6.50764 62.5721 7.16826 63.2441 8.17059 63.7339L9.03623 64.1667H27.4881C45.3705 64.1667 45.9742 64.1553 46.5209 63.9503C47.7624 63.4833 48.7192 62.5379 49.2203 61.2964L49.4823 60.6358V53.8245V47.0019L49.1634 46.7285C48.7761 46.3982 48.4002 46.3754 48.0471 46.6716L47.7738 46.888L47.7168 53.7106C47.6599 60.4763 47.6599 60.5219 47.4093 61.0003C47.1018 61.5698 46.4411 62.1393 45.8944 62.2987C45.6325 62.3671 39.3907 62.4012 27.3059 62.3784L9.12735 62.3443L8.63758 62.0026C8.06808 61.6039 7.68082 61.0686 7.50996 60.4763C7.3505 59.9068 7.3505 10.2234 7.50996 9.65392C7.68082 9.06164 8.06808 8.52631 8.63758 8.12766L9.12735 7.78595L27.3059 7.75178C39.3907 7.729 45.6325 7.76317 45.8944 7.83151C46.4411 7.99097 47.1018 8.56048 47.4093 9.12998C47.6599 9.59697 47.6599 9.69948 47.6941 14.2897L47.7282 18.971L40.8828 34.8259L34.0374 50.6809L34.0716 54.8155L34.1057 58.95L34.436 59.3715C34.8005 59.8499 35.5181 60.2371 36.042 60.2371C36.2357 60.2257 36.566 60.146 36.8052 60.0321C37.033 59.9296 38.5023 58.6311 40.0627 57.1618L42.9102 54.4851L51.2933 35.0651C55.9063 24.3813 59.7333 15.5767 59.7789 15.4856C59.87 15.3489 59.9611 15.3489 60.4053 15.5198C60.6901 15.6337 60.9521 15.759 60.9862 15.8159C61.0204 15.8729 59.5625 19.3696 57.7401 23.5953C55.9291 27.821 54.437 31.3861 54.437 31.5114C54.437 31.6253 54.5395 31.8645 54.6762 32.0354C54.9609 32.3885 55.576 32.4454 55.8949 32.1265C56.2024 31.819 63.0934 15.702 63.0934 15.292C63.0934 14.825 62.877 14.6428 61.6583 14.1188C60.9521 13.8113 60.6331 13.6177 60.6104 13.4696C60.5192 12.8659 60.4395 12.7292 60.0978 12.5584C59.9042 12.4559 59.7219 12.3534 59.6992 12.342C59.6878 12.3306 59.8586 11.8864 60.0978 11.3624C60.4737 10.5082 60.5192 10.3032 60.5192 9.43751C60.5306 8.64021 60.4851 8.37824 60.2573 7.91124C59.5055 6.37359 57.8198 5.59906 56.248 6.06606C54.9723 6.43054 54.2889 7.12533 53.6397 8.66299C53.3093 9.4489 53.2296 9.55141 52.9676 9.55141C52.6146 9.55141 51.8173 9.9045 51.6122 10.1437C51.5325 10.2348 51.0427 11.3055 50.5188 12.5128L49.562 14.6997L49.5165 12.1028C49.4709 9.74504 49.4367 9.42612 49.2089 8.83384C48.7419 7.64927 47.7966 6.68112 46.612 6.19135C46.0767 5.96355 45.7236 5.96355 27.7842 5.94077C16.9979 5.94077 9.32098 5.97494 9.05901 6.03189ZM57.9907 7.92263C58.4576 8.20739 58.7994 8.79967 58.8107 9.36917C58.8221 9.84755 58.1273 11.6358 57.9565 11.5788C57.9109 11.5561 57.2047 11.2599 56.3847 10.9182C54.6989 10.212 54.7787 10.3715 55.4165 9.01608C55.8835 8.03653 56.2822 7.729 57.0908 7.729C57.4212 7.729 57.7856 7.80873 57.9907 7.92263ZM56.0885 12.7065C57.3414 13.2418 58.4007 13.7202 58.4576 13.7657C58.5146 13.8113 51.5781 30.0991 51.43 30.2471C51.373 30.3155 45.9628 27.9122 45.9286 27.8097C45.8944 27.7299 50.5074 16.9208 52.7285 11.8522L52.9449 11.3624L53.3777 11.5447C53.6169 11.6472 54.8356 12.1711 56.0885 12.7065ZM48.6736 31.033C49.7329 31.5 50.6213 31.8987 50.6555 31.9215C50.701 31.967 41.8396 52.5944 41.7257 52.7083C41.6232 52.8108 36.1445 50.3961 36.1787 50.2594C36.1901 50.2025 38.172 45.5667 40.5981 39.9628C43.0241 34.3589 45.0288 29.7118 45.063 29.6321C45.1199 29.4954 45.2566 29.5409 48.6736 31.033ZM38.2403 53.2209C39.4477 53.7448 40.4614 54.2004 40.4955 54.2232C40.5639 54.3029 36.2357 58.3464 36.0306 58.3919C35.894 58.4261 35.8712 57.9477 35.8712 55.3508C35.8712 53.6537 35.9054 52.2641 35.9623 52.2641C36.0079 52.2641 37.033 52.6969 38.2403 53.2209Z" fill="white"/>
<path d="M17.6585 11.0094C16.8612 11.408 16.7928 11.6244 16.7587 13.7657C16.7131 15.9299 16.8156 16.3399 17.4648 16.7385C17.7951 16.9436 18.1368 16.955 23.3649 16.955H28.9118L29.1396 16.6588C29.4586 16.2602 29.4358 15.8729 29.0941 15.5312L28.8207 15.2464H23.6838H18.5583V13.9366V12.6267H27.4995H36.4407V13.9366V15.2464H34.3904C32.3516 15.2464 32.3288 15.2464 32.0555 15.5312C31.691 15.8843 31.6796 16.3741 32.0327 16.7044C32.2833 16.9436 32.3858 16.955 34.7549 16.955C37.0671 16.955 37.2266 16.9436 37.5113 16.7158C38.0922 16.2602 38.1492 15.9868 38.1492 13.8683C38.1492 12.1028 38.1264 11.875 37.9214 11.5447C37.443 10.7816 37.8075 10.8043 27.4083 10.8043C18.7177 10.8043 18.0229 10.8157 17.6585 11.0094Z" fill="white"/>
<path d="M13.0797 20.9301C12.8861 21.0782 12.8177 21.2604 12.8177 21.5679C12.8177 21.8755 12.8861 22.0577 13.0797 22.2058C13.3303 22.4108 13.8429 22.4222 27.5565 22.4222C40.9284 22.4222 41.7826 22.4108 42.0104 22.2172C42.3749 21.921 42.4319 21.3971 42.1357 21.0212L41.8965 20.7137H27.6134C13.8429 20.7137 13.3303 20.7251 13.0797 20.9301Z" fill="white"/>
<path d="M13.0683 26.4884C12.9658 26.6023 12.8519 26.8073 12.8177 26.944C12.7266 27.2402 12.9999 27.8324 13.2619 27.935C13.3644 27.9691 19.8226 28.0033 27.6134 28.0033C40.9283 28.0033 41.7826 27.9919 42.0104 27.7983C42.3749 27.5021 42.4318 26.9782 42.1357 26.6023L41.8965 26.2948H27.5678C14.0706 26.2948 13.2277 26.3062 13.0683 26.4884Z" fill="white"/>
<path d="M13.0683 32.0695C12.9658 32.1834 12.8519 32.3885 12.8177 32.5251C12.7266 32.8213 12.9999 33.4136 13.2619 33.5161C13.3644 33.5502 18.3988 33.5844 24.4356 33.5844H35.427L35.7003 33.2997C36.042 32.958 36.0648 32.5707 35.7459 32.172L35.5181 31.8759H24.3786C13.9112 31.8759 13.2277 31.8873 13.0683 32.0695Z" fill="white"/>
<path d="M13.0683 37.6507C12.9658 37.7646 12.8519 37.9696 12.8177 38.1063C12.7266 38.4024 12.9999 38.9947 13.2619 39.0972C13.3644 39.1314 16.0639 39.1655 19.2531 39.1655H25.062L25.3354 38.8808C25.6999 38.5277 25.7112 38.0379 25.3581 37.7076L25.0962 37.457H19.162C13.6606 37.457 13.2277 37.4684 13.0683 37.6507Z" fill="white"/>
<path d="M15.2324 52.2527C14.2528 52.5033 13.3188 53.1297 12.7152 53.9498C11.8267 55.1571 11.7584 56.0456 12.5215 56.3645C13.0341 56.5695 13.4213 56.3189 13.8314 55.5102C14.4237 54.3826 15.3007 53.8587 16.6219 53.8587C17.4079 53.8587 17.9888 54.1206 18.9797 54.918C20.4262 56.057 21.2691 56.3987 22.7156 56.41C23.4674 56.41 23.7407 56.3645 24.2874 56.1139C25.4265 55.5786 26.873 53.9726 26.873 53.2436C26.873 52.845 26.406 52.378 26.0073 52.378C25.8023 52.378 25.5859 52.5033 25.3467 52.788C23.8774 54.4737 23.6268 54.656 22.7498 54.656C21.85 54.656 21.1438 54.3598 20.1301 53.5625C19.0252 52.6855 18.581 52.4349 17.6812 52.2071C16.8497 51.9907 16.1891 52.0021 15.2324 52.2527Z" fill="white"/>
</svg>
