<svg width="20" height="20" viewBox="0 0 20 20" fill="none" xmlns="http://www.w3.org/2000/svg">
<g id="Group">
<path id="Vector" d="M5.37323 0.0550995C4.67397 0.187918 4.10364 0.484806 3.58799 0.97311C3.02546 1.50829 2.6856 2.10207 2.53716 2.83257C2.46684 3.16462 2.46293 3.44979 2.46293 7.74296V12.3057H2.36527C2.12307 12.3057 1.80665 12.5283 1.67383 12.7901C1.61133 12.9151 1.58789 13.0479 1.57227 13.3995L1.55274 13.8487L1.35351 14.0089C0.908174 14.3605 0.537063 14.9542 0.330022 15.6457C0.228455 15.9738 0.220642 16.0441 0.220642 16.7199C0.220642 17.5754 0.275332 17.8294 0.58394 18.4583C0.904268 19.1068 1.36523 19.5755 1.91994 19.8216C3.05671 20.3217 4.30677 19.7435 4.94352 18.4231C5.22478 17.8372 5.29119 17.5169 5.2951 16.7395C5.2951 16.1652 5.28338 16.0285 5.20525 15.7433C5.01383 15.048 4.62319 14.3956 4.16614 14.0128L3.92785 13.8175L3.90831 13.3409C3.88878 12.9034 3.88097 12.8526 3.7794 12.7041C3.64658 12.501 3.4161 12.3447 3.20516 12.3174L3.0489 12.294L3.05671 7.64139L3.06843 2.98883L3.15828 2.71538C3.33797 2.1802 3.54502 1.84424 3.92785 1.46532C4.47084 0.922327 5.07634 0.64497 5.82246 0.598093C7.19753 0.516058 8.42415 1.38719 8.83823 2.74272C8.92417 3.02789 8.92417 3.04743 8.9398 6.03194L8.95152 9.03208L8.76401 8.86801C8.50228 8.63753 8.12335 8.42268 7.75615 8.29767C7.4866 8.20392 7.38113 8.18829 6.97486 8.18829C6.58031 8.18438 6.46312 8.20001 6.23264 8.27814C5.38494 8.5594 4.72085 9.2899 4.51381 10.1571C4.26771 11.2041 4.51381 12.3018 5.24041 13.3604C5.46698 13.6925 5.842 14.1417 5.89278 14.1417C5.90841 14.1417 6.01388 14.0597 6.12717 13.962L6.3303 13.7862L6.0881 13.5049C4.84976 12.0674 4.65444 10.372 5.60761 9.34069C6.22483 8.67659 7.19362 8.57112 8.04522 9.07114C8.33821 9.24693 8.77573 9.68445 9.02183 10.0556C9.13512 10.2235 9.24059 10.3446 9.25622 10.329C9.27184 10.3095 9.3695 10.1689 9.47498 10.0204C9.74843 9.63367 10.0141 9.36022 10.3422 9.14146C10.7055 8.89926 11.0063 8.78597 11.3735 8.76254C12.3306 8.69222 13.1587 9.34069 13.4048 10.3525C13.4869 10.6767 13.4674 11.3603 13.3658 11.7392C13.0806 12.833 12.186 13.9268 10.6 15.1261C10.1469 15.4738 9.26794 16.0949 9.23669 16.0949C9.20543 16.0949 8.08429 15.2902 7.68583 14.9855C7.51004 14.8488 7.22097 14.6144 7.04908 14.462L6.73266 14.1886L6.52953 14.3917L6.32639 14.5987L6.55297 14.8058C6.91236 15.1378 7.46707 15.5675 8.22492 16.1066L8.92808 16.6106L8.99449 17.0168C9.07262 17.4817 9.22106 17.888 9.45935 18.2942C9.68983 18.6888 10.3149 19.3021 10.7172 19.5287C12.1548 20.3373 13.9049 20.0795 15.0338 18.8919C15.6901 18.1966 16.0183 17.3411 16.0183 16.3059V15.8996H15.7292H15.444L15.4206 16.4348C15.3971 17.0168 15.319 17.384 15.1354 17.7473C14.5924 18.8294 13.4908 19.474 12.3071 19.4037C11.8696 19.3763 11.5063 19.2747 11.0766 19.0521C10.6391 18.8255 10.1234 18.3099 9.89687 17.8723C9.71327 17.5169 9.59217 17.1496 9.55311 16.8371L9.52576 16.6223L10.225 16.1262C11.8852 14.9425 12.8345 14.0362 13.4088 13.0909C14.3424 11.5517 14.2525 9.8329 13.1861 8.83285C12.69 8.37189 12.1978 8.18438 11.4868 8.18438C11.0883 8.18829 10.9985 8.20001 10.6938 8.30939C10.3031 8.44611 10.0063 8.61409 9.7289 8.8602L9.53358 9.03208V6.16085C9.53358 3.01617 9.52967 2.92633 9.29919 2.3013C8.92027 1.25828 7.98663 0.410583 6.89283 0.117601C6.49828 0.0121288 5.75996 -0.0191231 5.37323 0.0550995ZM3.24422 12.9698C3.30672 13.0323 3.32235 13.0987 3.32235 13.2979V13.5479L3.15828 13.5089C2.97858 13.4698 2.33793 13.4893 2.21292 13.5362C2.14651 13.5674 2.14261 13.5518 2.15823 13.3018C2.18167 12.9268 2.23245 12.8916 2.75982 12.8916C3.11531 12.8916 3.17781 12.9034 3.24422 12.9698ZM3.19734 14.1222C3.47861 14.2081 3.85362 14.4737 4.07629 14.7511C5.18181 16.1105 4.83023 18.5481 3.43173 19.2396C2.67779 19.6107 1.87306 19.3607 1.32616 18.5833C0.955051 18.052 0.783168 17.4622 0.783168 16.7082C0.783168 15.4699 1.41992 14.4073 2.32621 14.1183C2.54497 14.0479 2.95514 14.0518 3.19734 14.1222Z" fill="#74BC1F"/>
<path id="Vector_2" d="M15.0299 0.0590363C14.3932 0.180135 13.7252 0.473118 13.2525 0.832509C12.9048 1.10205 12.4243 1.63333 12.2134 1.98881C11.8227 2.64119 11.6352 3.32091 11.6352 4.10219C11.6352 4.88348 11.8227 5.5632 12.2134 6.21557C12.4282 6.57496 12.9048 7.10233 13.2603 7.37578C13.5689 7.61408 14.2291 7.94612 14.5729 8.03206L14.8463 8.10238V8.3602C14.8463 8.80554 14.9752 9.05946 15.2995 9.25868L15.4323 9.34462V11.7432V14.1456L15.7174 14.1339L15.9987 14.1222L16.0104 11.708C16.0182 9.56729 16.0261 9.29775 16.0807 9.29775C16.112 9.29775 16.2214 9.21571 16.3229 9.11024C16.5378 8.89929 16.6042 8.7196 16.6042 8.3563V8.10629L16.862 8.03597C17.8777 7.77033 18.8856 6.93436 19.3739 5.95384C19.6864 5.32881 19.8075 4.80926 19.8075 4.10219C19.8075 3.18418 19.5497 2.38336 19.0223 1.68021C18.4441 0.906732 17.6511 0.371551 16.7292 0.129352C16.2448 0.00434589 15.4831 -0.026906 15.0299 0.0590363ZM15.4245 0.887199L15.4127 1.18799L15.1549 1.23487C14.4361 1.36769 13.7134 1.84428 13.3072 2.45759C13.0806 2.79354 12.9829 3.02011 12.8775 3.45763L12.7876 3.80921L12.5103 3.82093L12.229 3.83265V3.72327C12.229 3.51232 12.3892 2.9537 12.5376 2.63337C12.7251 2.23882 12.8814 2.00444 13.1626 1.70364C13.7642 1.0708 14.4439 0.730942 15.4049 0.590311C15.4206 0.590311 15.4323 0.723129 15.4245 0.887199ZM16.5456 0.691877C17.8543 0.992673 18.8738 2.05132 19.1629 3.41075C19.2567 3.84437 19.2645 3.82874 18.9363 3.82874H18.6473L18.5848 3.50451C18.5066 3.11777 18.2527 2.57868 17.9832 2.24664C17.5964 1.77005 17.0027 1.39504 16.4245 1.27003C16.2526 1.23097 16.0925 1.19581 16.069 1.18799C16.0339 1.18018 16.0182 1.08252 16.0182 0.883293V0.586404L16.1472 0.609842C16.2136 0.621562 16.3972 0.660626 16.5456 0.691877ZM16.4206 1.87162C17.1628 2.12945 17.698 2.65681 17.9402 3.35216C18.0144 3.57092 18.0301 3.69202 18.0301 4.10219C18.0301 4.51237 18.0144 4.63347 17.9402 4.85223C17.6941 5.55929 17.1394 6.09057 16.3698 6.3523C16.0768 6.45387 15.3424 6.44996 15.0612 6.3523C14.7252 6.2312 14.5572 6.14526 14.3111 5.96165C13.0845 5.05927 13.0845 3.14512 14.3111 2.24273C14.6119 2.02006 14.9401 1.86771 15.276 1.7974C15.5495 1.74271 16.1589 1.77787 16.4206 1.87162ZM12.854 4.65691C13.0767 5.81712 14.0181 6.75857 15.1549 6.96951L15.4127 7.01639L15.4245 7.31328L15.4362 7.61408L15.2877 7.59454C14.0767 7.42266 13.0572 6.67263 12.5415 5.57492C12.397 5.26631 12.229 4.69597 12.229 4.50065C12.229 4.41861 12.2446 4.41471 12.5181 4.41471H12.8032L12.854 4.65691ZM19.2215 4.4694C19.2215 4.57878 19.1082 5.06318 19.0262 5.28975C18.6121 6.49293 17.4714 7.40703 16.1667 7.59064L16.0182 7.61408V7.32109C16.0182 7.12186 16.0339 7.0242 16.069 7.01639C16.0925 7.00858 16.2487 6.97342 16.4089 6.93826C17.5222 6.69216 18.4207 5.71946 18.616 4.55925L18.6395 4.41471H18.9285C19.159 4.41471 19.2215 4.42643 19.2215 4.4694ZM16.0182 8.39927C16.0182 8.55943 15.9987 8.61803 15.9206 8.69225C15.8698 8.74694 15.7799 8.78991 15.7253 8.78991C15.6706 8.78991 15.5807 8.74694 15.5299 8.69225C15.4518 8.61803 15.4323 8.55943 15.4323 8.39927V8.20395H15.7253H16.0182V8.39927Z" fill="#74BC1F"/>
<path id="Vector_3" d="M15.3932 3.28567C15.0846 3.41067 14.8463 3.76616 14.8463 4.10602C14.8463 4.35993 15.0143 4.67636 15.2291 4.8248C15.3893 4.93418 15.4245 4.94199 15.7682 4.94199H16.1354L16.3894 5.19591L16.6433 5.44592L16.8386 5.25451C16.9441 5.14903 17.0339 5.04356 17.0339 5.02403C17.0339 5.00059 16.9206 4.86777 16.78 4.72714L16.53 4.47322L16.573 4.30915C16.6628 3.94195 16.4714 3.50833 16.1393 3.33254C15.9518 3.23488 15.5807 3.21144 15.3932 3.28567ZM15.9362 3.93023C15.9831 3.98882 16.0182 4.06305 16.0182 4.10211C16.0182 4.14117 15.9831 4.2154 15.9362 4.27399C15.776 4.47713 15.4323 4.36384 15.4323 4.10211C15.4323 3.84038 15.776 3.72709 15.9362 3.93023Z" fill="#74BC1F"/>
<path id="Vector_4" d="M10.9399 9.74693V10.0399H11.2329H11.5258V9.74693V9.45395H11.2329H10.9399V9.74693Z" fill="#74BC1F"/>
<path id="Vector_5" d="M12.1118 10.3329V10.6259H12.4048H12.6978V10.3329V10.0399H12.4048H12.1118V10.3329Z" fill="#74BC1F"/>
<path id="Vector_6" d="M8.08037 11.6807L7.71707 12.1846L7.35768 12.1885H6.99438V12.4815V12.7745H7.49831H8.00615L8.24835 12.4424C8.38117 12.2588 8.49836 12.1104 8.51399 12.1104C8.52571 12.1104 8.81869 12.4073 9.16245 12.7706C9.50622 13.1339 9.7992 13.4268 9.81483 13.4229C9.82655 13.4229 10.0453 13.1495 10.2953 12.8213L10.7524 12.2276H11.1196H11.4868V11.9346V11.6377L10.9711 11.6494L10.4555 11.6611L10.1195 12.0987C9.93593 12.3369 9.77576 12.5323 9.76014 12.5284C9.74842 12.5245 9.44372 12.2198 9.08823 11.8486L8.43976 11.1767L8.08037 11.6807Z" fill="#74BC1F"/>
<path id="Vector_7" d="M15.4323 15.0011V15.3175L15.7175 15.3058L15.9987 15.2941V15.0011V14.7081L15.7175 14.6964L15.4323 14.6847V15.0011Z" fill="#74BC1F"/>
</g>
</svg>
