<svg xmlns="http://www.w3.org/2000/svg" width="24" height="24" viewBox="0 0 24 24" fill="none">
  <path d="M20.3798 3.46L15.9998 2C15.9998 3.06087 15.5784 4.07828 14.8282 4.82843C14.0781 5.57857 13.0607 6 11.9998 6C10.9389 6 9.92151 5.57857 9.17137 4.82843C8.42122 4.07828 7.9998 3.06087 7.9998 2L3.6198 3.46C3.16718 3.61079 2.78337 3.91842 2.53765 4.32734C2.29193 4.73627 2.20047 5.21956 2.2798 5.69L2.8598 9.16C2.89787 9.39491 3.01848 9.60855 3.19994 9.76251C3.3814 9.91648 3.61182 10.0007 3.8498 10H5.9998V20C5.9998 21.1 6.8998 22 7.9998 22H15.9998C16.5302 22 17.0389 21.7893 17.414 21.4142C17.7891 21.0391 17.9998 20.5304 17.9998 20V10H20.1498C20.3878 10.0007 20.6182 9.91648 20.7997 9.76251C20.9811 9.60855 21.1017 9.39491 21.1398 9.16L21.7198 5.69C21.7991 5.21956 21.7077 4.73627 21.4619 4.32734C21.2162 3.91842 20.8324 3.61079 20.3798 3.46Z" fill="#74BC1F" stroke="#74BC1F" stroke-width="2" stroke-linecap="round" stroke-linejoin="round"/>
  <path d="M14.7373 10.7158C14.7582 10.7373 14.779 10.7587 14.8018 10.7783C14.7947 10.7871 14.7871 10.7947 14.7783 10.8018C14.7587 10.779 14.7373 10.7582 14.7158 10.7373C14.7231 10.7302 14.7302 10.7231 14.7373 10.7158ZM13.2617 10.7158C13.2688 10.7231 13.2759 10.7302 13.2832 10.7373C13.2694 10.7508 13.2543 10.7631 13.2412 10.7773C13.2329 10.7725 13.225 10.7679 13.2178 10.7617C13.2335 10.7475 13.2469 10.731 13.2617 10.7158ZM13.208 9.18066C13.2315 9.2092 13.2568 9.2359 13.2832 9.26172C13.2759 9.26877 13.2688 9.27594 13.2617 9.2832C13.2341 9.25496 13.2055 9.22806 13.1748 9.20312C13.1847 9.19402 13.1961 9.18707 13.208 9.18066ZM14.7783 9.19727C14.7871 9.2043 14.7947 9.21201 14.8018 9.2207C14.779 9.24026 14.7582 9.26176 14.7373 9.2832C14.7302 9.27594 14.7231 9.26877 14.7158 9.26172C14.7373 9.24077 14.7587 9.22002 14.7783 9.19727Z" stroke="white"/>
</svg>