<svg xmlns="http://www.w3.org/2000/svg" width="24" height="24" viewBox="0 0 24 24" fill="none">
  <path d="M3.18579 9.1572C3.06333 9.4211 2.99993 9.70855 3 9.99948V18.9995C3 19.5299 3.21071 20.0386 3.58579 20.4137C3.96086 20.7888 4.46957 20.9995 5 20.9995L10 20.9995L19 20.9995C19.5304 20.9995 20.0391 20.7888 20.4142 20.4137C20.7893 20.0386 21 19.5299 21 18.9995V9.99948C21.0001 9.70855 20.9367 9.4211 20.8142 9.1572C20.6918 8.89329 20.5132 8.65928 20.291 8.47148L13.291 2.47248C12.93 2.16739 12.4726 2 12 2C11.5274 2 11.07 2.16739 10.709 2.47248L3.709 8.47148C3.4868 8.65928 3.30824 8.89329 3.18579 9.1572Z" stroke="#666666" stroke-width="2" stroke-linecap="round" stroke-linejoin="round"/>
  <path d="M14.0381 14.5186C14.3245 14.5187 14.5566 14.7516 14.5566 15.0381C14.5565 15.3244 14.3244 15.5565 14.0381 15.5566C13.7516 15.5566 13.5187 15.3245 13.5186 15.0381C13.5186 14.7515 13.7515 14.5186 14.0381 14.5186ZM9.96191 14.4053C10.2485 14.4053 10.4814 14.6382 10.4814 14.9248C10.4813 15.2112 10.2484 15.4434 9.96191 15.4434C9.6756 15.4432 9.44351 15.2111 9.44336 14.9248C9.44336 14.6384 9.67551 14.4055 9.96191 14.4053ZM9.84863 10.4434C10.1351 10.4434 10.368 10.6755 10.3682 10.9619C10.3682 11.2485 10.1352 11.4814 9.84863 11.4814C9.56226 11.4812 9.33008 11.2483 9.33008 10.9619C9.33027 10.6757 9.56238 10.4436 9.84863 10.4434ZM14.0381 10.4434C14.3244 10.4435 14.5565 10.6756 14.5566 10.9619C14.5566 11.2484 14.3245 11.4813 14.0381 11.4814C13.7515 11.4814 13.5186 11.2485 13.5186 10.9619C13.5187 10.6755 13.7516 10.4434 14.0381 10.4434Z" stroke="#666666"/>
</svg>