<svg xmlns="http://www.w3.org/2000/svg" width="24" height="24" viewBox="0 0 24 24" fill="none">
  <path d="M2 20H22M5 4H19C20.1046 4 21 4.89543 21 6V14C21 15.1046 20.1046 16 19 16H5C3.89543 16 3 15.1046 3 14V6C3 4.89543 3.89543 4 5 4Z" stroke="#666666" stroke-width="2" stroke-linecap="round" stroke-linejoin="round"/>
  <path d="M13.6982 12.3486C13.891 12.3487 14.0469 12.5055 14.0469 12.6982C14.0468 12.8909 13.8909 13.0468 13.6982 13.0469C13.5055 13.0469 13.3487 12.891 13.3486 12.6982C13.3486 12.5055 13.5055 12.3486 13.6982 12.3486ZM10.3018 12.2549C10.4945 12.2549 10.6512 12.4109 10.6514 12.6035C10.6514 12.7963 10.4945 12.9531 10.3018 12.9531C10.109 12.9531 9.95312 12.7963 9.95312 12.6035C9.95326 12.4109 10.1091 12.255 10.3018 12.2549ZM10.208 8.95312C10.4005 8.95337 10.5566 9.10919 10.5566 9.30176C10.5566 9.49438 10.4006 9.65112 10.208 9.65137C10.0152 9.65137 9.8584 9.49454 9.8584 9.30176C9.85847 9.10904 10.0153 8.95312 10.208 8.95312ZM13.6982 8.95312C13.8909 8.95319 14.0468 9.10908 14.0469 9.30176C14.0469 9.49449 13.891 9.6513 13.6982 9.65137C13.5055 9.65137 13.3486 9.49454 13.3486 9.30176C13.3487 9.10904 13.5055 8.95312 13.6982 8.95312Z" stroke="#666666"/>
</svg>