<svg xmlns="http://www.w3.org/2000/svg" width="17" height="17" viewBox="0 0 17 17" fill="none">
  <path d="M11.3332 6.3751C11.793 6.98815 12.0415 7.73379 12.0415 8.5001C12.0415 9.26641 11.793 10.0121 11.3332 10.6251M13.716 13.0079C14.308 12.416 14.7776 11.7132 15.098 10.9397C15.4183 10.1663 15.5832 9.33728 15.5832 8.5001C15.5832 7.66292 15.4183 6.83393 15.098 6.06048C14.7776 5.28702 14.308 4.58424 13.716 3.99227M7.7915 3.33068C7.79136 3.23202 7.762 3.13561 7.70711 3.05362C7.65223 2.97164 7.57429 2.90774 7.48313 2.87C7.39197 2.83227 7.29168 2.82238 7.1949 2.84159C7.09813 2.8608 7.00921 2.90824 6.93938 2.97793L4.54238 5.37423C4.44987 5.46728 4.33982 5.54106 4.21859 5.59128C4.09737 5.64149 3.96738 5.66715 3.83617 5.66677H2.12484C1.93698 5.66677 1.75681 5.7414 1.62397 5.87423C1.49113 6.00707 1.4165 6.18724 1.4165 6.3751V10.6251C1.4165 10.813 1.49113 10.9931 1.62397 11.126C1.75681 11.2588 1.93698 11.3334 2.12484 11.3334H3.83617C3.96738 11.333 4.09737 11.3587 4.21859 11.4089C4.33982 11.4591 4.44987 11.5329 4.54238 11.626L6.93867 14.023C7.00851 14.093 7.09755 14.1406 7.19451 14.16C7.29148 14.1793 7.39199 14.1694 7.48333 14.1315C7.57466 14.0937 7.6527 14.0296 7.70757 13.9473C7.76243 13.8651 7.79164 13.7684 7.7915 13.6695V3.33068Z" stroke="#1FBCB3" stroke-width="2" stroke-linecap="round" stroke-linejoin="round"/>
</svg>