<svg xmlns="http://www.w3.org/2000/svg" width="31" height="32" viewBox="0 0 31 32" fill="none">
  <path d="M28.25 13V9.99998C28.2495 9.47389 28.1106 8.95719 27.8473 8.50172C27.584 8.04625 27.2056 7.66802 26.75 7.40498L16.25 1.40498C15.7939 1.14167 15.2766 1.00305 14.75 1.00305C14.2234 1.00305 13.7061 1.14167 13.25 1.40498L2.75 7.40498C2.29439 7.66802 1.91597 8.04625 1.65269 8.50172C1.38941 8.95719 1.25054 9.47389 1.25 9.99998V22C1.25054 22.5261 1.38941 23.0428 1.65269 23.4982C1.91597 23.9537 2.29439 24.3319 2.75 24.595L13.25 30.595C13.7061 30.8583 14.2234 30.9969 14.75 30.9969C15.2766 30.9969 15.7939 30.8583 16.25 30.595L19.25 28.885M8 4.40498L21.5 12.13M1.685 8.49998L14.75 16M14.75 16L27.815 8.49998M14.75 16V31M27.155 23.905L29.75 26.5M28.25 21.25C28.25 23.321 26.5711 25 24.5 25C22.4289 25 20.75 23.321 20.75 21.25C20.75 19.1789 22.4289 17.5 24.5 17.5C26.5711 17.5 28.25 19.1789 28.25 21.25Z" stroke="#74BC1F" stroke-width="2" stroke-linecap="round" stroke-linejoin="round"/>
</svg>